  0
SECTION
  2
HEADER
  9
$ACADVER
  1
AC1009
  9
$DWGCODEPAGE
  3
ansi_1252
  9
$INSBASE
 10
0.0
 20
0.0
 30
0.0
  9
$EXTMIN
 10
34.36912264644025
 20
23.64961427824114
 30
0.0
  9
$EXTMAX
 10
1179.466727144712
 20
2401.657720972803
 30
0.0
  9
$LIMMIN
 10
0.0
 20
0.0
  9
$LIMMAX
 10
12.0
 20
9.0
  9
$ORTHOMODE
 70
     0
  9
$REGENMODE
 70
     1
  9
$FILLMODE
 70
     1
  9
$QTEXTMODE
 70
     0
  9
$MIRRTEXT
 70
     1
  9
$DRAGMODE
 70
     2
  9
$LTSCALE
 40
1.0
  9
$OSMODE
 70
    37
  9
$ATTMODE
 70
     1
  9
$TEXTSIZE
 40
0.2
  9
$TRACEWID
 40
0.05
  9
$TEXTSTYLE
  7
STANDARD
  9
$CLAYER
  8
0
  9
$CELTYPE
  6
BYLAYER
  9
$CECOLOR
 62
   256
  9
$DIMSCALE
 40
1.0
  9
$DIMASZ
 40
0.18
  9
$DIMEXO
 40
0.0625
  9
$DIMDLI
 40
0.38
  9
$DIMRND
 40
0.0
  9
$DIMDLE
 40
0.0
  9
$DIMEXE
 40
0.18
  9
$DIMTP
 40
0.0
  9
$DIMTM
 40
0.0
  9
$DIMTXT
 40
0.18
  9
$DIMCEN
 40
0.09
  9
$DIMTSZ
 40
0.0
  9
$DIMTOL
 70
     0
  9
$DIMLIM
 70
     0
  9
$DIMTIH
 70
     1
  9
$DIMTOH
 70
     1
  9
$DIMSE1
 70
     0
  9
$DIMSE2
 70
     0
  9
$DIMTAD
 70
     0
  9
$DIMZIN
 70
     0
  9
$DIMBLK
  1

  9
$DIMASO
 70
     1
  9
$DIMSHO
 70
     1
  9
$DIMPOST
  1

  9
$DIMAPOST
  1

  9
$DIMALT
 70
     0
  9
$DIMALTD
 70
     2
  9
$DIMALTF
 40
25.4
  9
$DIMLFAC
 40
1.0
  9
$DIMTOFL
 70
     0
  9
$DIMTVP
 40
0.0
  9
$DIMTIX
 70
     0
  9
$DIMSOXD
 70
     0
  9
$DIMSAH
 70
     0
  9
$DIMBLK1
  1

  9
$DIMBLK2
  1

  9
$DIMSTYLE
  2
STANDARD
  9
$DIMCLRD
 70
     0
  9
$DIMCLRE
 70
     0
  9
$DIMCLRT
 70
     0
  9
$DIMTFAC
 40
1.0
  9
$DIMGAP
 40
0.09
  9
$LUNITS
 70
     2
  9
$LUPREC
 70
     4
  9
$SKETCHINC
 40
0.1
  9
$FILLETRAD
 40
0.5
  9
$AUNITS
 70
     0
  9
$AUPREC
 70
     0
  9
$MENU
  1
.
  9
$ELEVATION
 40
0.0
  9
$PELEVATION
 40
0.0
  9
$THICKNESS
 40
0.0
  9
$LIMCHECK
 70
     0
  9
$CHAMFERA
 40
0.0
  9
$CHAMFERB
 40
0.0
  9
$SKPOLY
 70
     0
  9
$TDCREATE
 40
2454910.5
  9
$TDUPDATE
 40
2457156.79399125
  9
$TDINDWG
 40
0.0000000116
  9
$TDUSRTIMER
 40
0.0000000116
  9
$USRTIMER
 70
     1
  9
$ANGBASE
 50
0.0
  9
$ANGDIR
 70
     0
  9
$PDMODE
 70
     0
  9
$PDSIZE
 40
0.0
  9
$PLINEWID
 40
0.0
  9
$COORDS
 70
     1
  9
$SPLFRAME
 70
     0
  9
$SPLINETYPE
 70
     6
  9
$SPLINESEGS
 70
     8
  9
$ATTDIA
 70
     0
  9
$ATTREQ
 70
     1
  9
$HANDLING
 70
     1
  9
$HANDSEED
  5
354
  9
$SURFTAB1
 70
     6
  9
$SURFTAB2
 70
     6
  9
$SURFTYPE
 70
     6
  9
$SURFU
 70
     6
  9
$SURFV
 70
     6
  9
$UCSNAME
  2

  9
$UCSORG
 10
0.0
 20
0.0
 30
0.0
  9
$UCSXDIR
 10
1.0
 20
0.0
 30
0.0
  9
$UCSYDIR
 10
0.0
 20
1.0
 30
0.0
  9
$PUCSNAME
  2

  9
$PUCSORG
 10
0.0
 20
0.0
 30
0.0
  9
$PUCSXDIR
 10
1.0
 20
0.0
 30
0.0
  9
$PUCSYDIR
 10
0.0
 20
1.0
 30
0.0
  9
$USERI1
 70
     0
  9
$USERI2
 70
     0
  9
$USERI3
 70
     0
  9
$USERI4
 70
     0
  9
$USERI5
 70
     0
  9
$USERR1
 40
0.0
  9
$USERR2
 40
0.0
  9
$USERR3
 40
0.0
  9
$USERR4
 40
0.0
  9
$USERR5
 40
0.0
  9
$WORLDVIEW
 70
     1
  9
$SHADEDGE
 70
     3
  9
$SHADEDIF
 70
    70
  9
$TILEMODE
 70
     1
  9
$MAXACTVP
 70
    64
  9
$PLIMCHECK
 70
     0
  9
$PEXTMIN
 10
1.000000000000000E+20
 20
1.000000000000000E+20
 30
1.000000000000000E+20
  9
$PEXTMAX
 10
-1.000000000000000E+20
 20
-1.000000000000000E+20
 30
-1.000000000000000E+20
  9
$PLIMMIN
 10
0.0
 20
0.0
  9
$PLIMMAX
 10
12.0
 20
9.0
  9
$UNITMODE
 70
     0
  9
$VISRETAIN
 70
     1
  9
$PLINEGEN
 70
     0
  9
$PSLTSCALE
 70
     1
  0
ENDSEC
  0
SECTION
  2
TABLES
  0
TABLE
  2
VPORT
 70
     1
  0
VPORT
  2
*ACTIVE
 70
     0
 10
0.0
 20
0.0
 11
1.0
 21
1.0
 12
10.42990654205607
 22
4.5
 13
0.0
 23
0.0
 14
0.5
 24
0.5
 15
0.5
 25
0.5
 16
0.0
 26
0.0
 36
1.0
 17
0.0
 27
0.0
 37
0.0
 40
9.0
 41
1.972972972850329
 42
50.0
 43
0.0
 44
0.0
 50
0.0
 51
0.0
 71
     0
 72
   100
 73
     1
 74
     3
 75
     0
 76
     0
 77
     0
 78
     0
  0
ENDTAB
  0
TABLE
  2
LTYPE
 70
     2
  0
LTYPE
  2
CONTINUOUS
 70
     0
  3
Solid line
 72
    65
 73
     0
 40
0.0
  0
LTYPE
  2
CONTINUOUS2
 70
     0
  3
Solid Line
 72
    65
 73
     0
 40
0.0
  0
ENDTAB
  0
TABLE
  2
LAYER
 70
     3
  0
LAYER
  2
0
 70
     0
 62
     7
  6
CONTINUOUS
  0
LAYER
  2
DRILL
 70
     0
 62
     3
  6
CONTINUOUS
  0
LAYER
  2
OUTSIDE
 70
     0
 62
     1
  6
CONTINUOUS
  0
ENDTAB
  0
TABLE
  2
STYLE
 70
     1
  0
STYLE
  2
STANDARD
 70
     0
 40
0.0
 41
1.0
 50
0.0
 71
     0
 42
0.2
  3
txt
  4

  0
ENDTAB
  0
TABLE
  2
VIEW
 70
     0
  0
ENDTAB
  0
TABLE
  2
UCS
 70
     0
  0
ENDTAB
  0
TABLE
  2
APPID
 70
     1
  0
APPID
  2
ACAD
 70
     0
  0
ENDTAB
  0
TABLE
  2
DIMSTYLE
 70
     1
  0
DIMSTYLE
  2
STANDARD
 70
     0
  3

  4

  5

  6

  7

 40
1.0
 41
0.18
 42
0.0625
 43
0.38
 44
0.18
 45
0.0
 46
0.0
 47
0.0
 48
0.0
140
0.18
141
0.09
142
0.0
143
25.4
144
1.0
145
0.0
146
1.0
147
0.09
 71
     0
 72
     0
 73
     1
 74
     1
 75
     0
 76
     0
 77
     0
 78
     0
170
     0
171
     2
172
     0
173
     0
174
     0
175
     0
176
     0
177
     0
178
     0
  0
ENDTAB
  0
ENDSEC
  0
SECTION
  2
BLOCKS
  0
BLOCK
  8
0
  2
$MODEL_SPACE
 70
     0
 10
0.0
 20
0.0
 30
0.0
  3
$MODEL_SPACE
  1

  0
ENDBLK
  5
21
  8
0
  0
BLOCK
 67
     1
  8
0
  2
$PAPER_SPACE
 70
     0
 10
0.0
 20
0.0
 30
0.0
  3
$PAPER_SPACE
  1

  0
ENDBLK
  5
1D
 67
     1
  8
0
  0
ENDSEC
  0
SECTION
  2
ENTITIES
  0
POLYLINE
  5
6C
  8
DRILL
 66
     1
 10
0.0
 20
0.0
 30
0.0
 70
     1
  0
VERTEX
  5
A0
  8
DRILL
 10
296.9952522285019
 20
2055.385628797564
 30
0.0
 42
0.4142135623730951
  0
VERTEX
  5
A1
  8
DRILL
 10
293.8202522285019
 20
2052.210628797564
 30
0.0
 42
0.4142135623730951
  0
VERTEX
  5
A2
  8
DRILL
 10
296.9952522285019
 20
2049.035628797564
 30
0.0
 42
0.4142135623730951
  0
VERTEX
  5
A3
  8
DRILL
 10
300.1702522285019
 20
2052.210628797564
 30
0.0
 42
0.4142135623730951
  0
SEQEND
  5
328
  8
DRILL
  0
POLYLINE
  5
6D
  8
DRILL
 66
     1
 10
0.0
 20
0.0
 30
0.0
 70
     1
  0
VERTEX
  5
A4
  8
DRILL
 10
362.9952522285019
 20
1989.385628797564
 30
0.0
 42
0.4142135623730951
  0
VERTEX
  5
A5
  8
DRILL
 10
359.8202522285019
 20
1986.210628797564
 30
0.0
 42
0.4142135623730951
  0
VERTEX
  5
A6
  8
DRILL
 10
362.9952522285019
 20
1983.035628797564
 30
0.0
 42
0.4142135623730951
  0
VERTEX
  5
A7
  8
DRILL
 10
366.1702522285019
 20
1986.210628797564
 30
0.0
 42
0.4142135623730951
  0
SEQEND
  5
329
  8
DRILL
  0
POLYLINE
  5
6E
  8
DRILL
 66
     1
 10
0.0
 20
0.0
 30
0.0
 70
     1
  0
VERTEX
  5
A8
  8
DRILL
 10
841.898515951882
 20
2252.323254445607
 30
0.0
 42
0.4142135623730951
  0
VERTEX
  5
A9
  8
DRILL
 10
838.7235159518823
 20
2255.498254445607
 30
0.0
 42
0.4142135623730951
  0
VERTEX
  5
AA
  8
DRILL
 10
835.5485159518821
 20
2252.323254445607
 30
0.0
 42
0.4142135623730951
  0
VERTEX
  5
AB
  8
DRILL
 10
838.7235159518823
 20
2249.148254445607
 30
0.0
 42
0.4142135623730951
  0
SEQEND
  5
32A
  8
DRILL
  0
POLYLINE
  5
6F
  8
DRILL
 66
     1
 10
0.0
 20
0.0
 30
0.0
 70
     1
  0
VERTEX
  5
AC
  8
DRILL
 10
826.3985159518825
 20
2011.323254445606
 30
0.0
 42
0.4142135623730951
  0
VERTEX
  5
AD
  8
DRILL
 10
823.2235159518823
 20
2014.498254445606
 30
0.0
 42
0.4142135623730951
  0
VERTEX
  5
AE
  8
DRILL
 10
820.0485159518826
 20
2011.323254445606
 30
0.0
 42
0.4142135623730951
  0
VERTEX
  5
AF
  8
DRILL
 10
823.2235159518823
 20
2008.148254445606
 30
0.0
 42
0.4142135623730951
  0
SEQEND
  5
32B
  8
DRILL
  0
POLYLINE
  5
70
  8
DRILL
 66
     1
 10
0.0
 20
0.0
 30
0.0
 70
     1
  0
VERTEX
  5
B0
  8
DRILL
 10
826.3985159518825
 20
1761.323254445606
 30
0.0
 42
0.4142135623730951
  0
VERTEX
  5
B1
  8
DRILL
 10
823.2235159518823
 20
1764.498254445606
 30
0.0
 42
0.4142135623730951
  0
VERTEX
  5
B2
  8
DRILL
 10
820.0485159518826
 20
1761.323254445606
 30
0.0
 42
0.4142135623730951
  0
VERTEX
  5
B3
  8
DRILL
 10
823.2235159518823
 20
1758.148254445606
 30
0.0
 42
0.4142135623730951
  0
SEQEND
  5
32C
  8
DRILL
  0
POLYLINE
  5
71
  8
DRILL
 66
     1
 10
0.0
 20
0.0
 30
0.0
 70
     1
  0
VERTEX
  5
B4
  8
DRILL
 10
650.898515951882
 20
1520.323254445607
 30
0.0
 42
0.4142135623730951
  0
VERTEX
  5
B5
  8
DRILL
 10
647.7235159518818
 20
1523.498254445607
 30
0.0
 42
0.4142135623730951
  0
VERTEX
  5
B6
  8
DRILL
 10
644.5485159518821
 20
1520.323254445607
 30
0.0
 42
0.4142135623730951
  0
VERTEX
  5
B7
  8
DRILL
 10
647.7235159518818
 20
1517.148254445607
 30
0.0
 42
0.4142135623730951
  0
SEQEND
  5
32D
  8
DRILL
  0
POLYLINE
  5
72
  8
DRILL
 66
     1
 10
0.0
 20
0.0
 30
0.0
 70
     1
  0
VERTEX
  5
B8
  8
DRILL
 10
348.898515951882
 20
2252.323254445607
 30
0.0
 42
0.4142135623730951
  0
VERTEX
  5
B9
  8
DRILL
 10
345.7235159518823
 20
2255.498254445607
 30
0.0
 42
0.4142135623730951
  0
VERTEX
  5
BA
  8
DRILL
 10
342.5485159518821
 20
2252.323254445607
 30
0.0
 42
0.4142135623730951
  0
VERTEX
  5
BB
  8
DRILL
 10
345.7235159518823
 20
2249.148254445607
 30
0.0
 42
0.4142135623730951
  0
SEQEND
  5
32E
  8
DRILL
  0
POLYLINE
  5
73
  8
DRILL
 66
     1
 10
0.0
 20
0.0
 30
0.0
 70
     1
  0
VERTEX
  5
BC
  8
DRILL
 10
1110.890298634495
 20
1194.649614278241
 30
0.0
 42
0.4142135623730951
  0
VERTEX
  5
BD
  8
DRILL
 10
1107.715298634495
 20
1197.824614278241
 30
0.0
 42
0.4142135623730951
  0
VERTEX
  5
BE
  8
DRILL
 10
1104.540298634495
 20
1194.649614278241
 30
0.0
 42
0.4142135623730951
  0
VERTEX
  5
BF
  8
DRILL
 10
1107.715298634495
 20
1191.474614278241
 30
0.0
 42
0.4142135623730951
  0
SEQEND
  5
32F
  8
DRILL
  0
POLYLINE
  5
74
  8
DRILL
 66
     1
 10
0.0
 20
0.0
 30
0.0
 70
     1
  0
VERTEX
  5
C0
  8
DRILL
 10
1095.390298634495
 20
416.9829476115742
 30
0.0
 42
0.4142135623730951
  0
VERTEX
  5
C1
  8
DRILL
 10
1092.215298634495
 20
420.1579476115741
 30
0.0
 42
0.4142135623730951
  0
VERTEX
  5
C2
  8
DRILL
 10
1089.040298634495
 20
416.9829476115742
 30
0.0
 42
0.4142135623730951
  0
VERTEX
  5
C3
  8
DRILL
 10
1092.215298634495
 20
413.8079476115742
 30
0.0
 42
0.4142135623730951
  0
SEQEND
  5
330
  8
DRILL
  0
POLYLINE
  5
75
  8
DRILL
 66
     1
 10
0.0
 20
0.0
 30
0.0
 70
     1
  0
VERTEX
  5
C4
  8
DRILL
 10
1095.390298634495
 20
810.3162809449082
 30
0.0
 42
0.4142135623730951
  0
VERTEX
  5
C5
  8
DRILL
 10
1092.215298634495
 20
813.4912809449081
 30
0.0
 42
0.4142135623730951
  0
VERTEX
  5
C6
  8
DRILL
 10
1089.040298634495
 20
810.3162809449082
 30
0.0
 42
0.4142135623730951
  0
VERTEX
  5
C7
  8
DRILL
 10
1092.215298634495
 20
807.1412809449082
 30
0.0
 42
0.4142135623730951
  0
SEQEND
  5
331
  8
DRILL
  0
POLYLINE
  5
76
  8
DRILL
 66
     1
 10
0.0
 20
0.0
 30
0.0
 70
     1
  0
VERTEX
  5
C8
  8
DRILL
 10
919.8902986344951
 20
32.64961427824114
 30
0.0
 42
0.4142135623730951
  0
VERTEX
  5
C9
  8
DRILL
 10
916.7152986344952
 20
35.82461427824132
 30
0.0
 42
0.4142135623730951
  0
VERTEX
  5
CA
  8
DRILL
 10
913.5402986344952
 20
32.64961427824114
 30
0.0
 42
0.4142135623730951
  0
VERTEX
  5
CB
  8
DRILL
 10
916.7152986344952
 20
29.47461427824096
 30
0.0
 42
0.4142135623730951
  0
SEQEND
  5
332
  8
DRILL
  0
POLYLINE
  5
77
  8
DRILL
 66
     1
 10
0.0
 20
0.0
 30
0.0
 70
     1
  0
VERTEX
  5
CC
  8
DRILL
 10
617.8902986344954
 20
1194.649614278241
 30
0.0
 42
0.4142135623730951
  0
VERTEX
  5
CD
  8
DRILL
 10
614.7152986344954
 20
1197.824614278241
 30
0.0
 42
0.4142135623730951
  0
VERTEX
  5
CE
  8
DRILL
 10
611.5402986344955
 20
1194.649614278241
 30
0.0
 42
0.4142135623730951
  0
VERTEX
  5
CF
  8
DRILL
 10
614.7152986344954
 20
1191.474614278241
 30
0.0
 42
0.4142135623730951
  0
SEQEND
  5
333
  8
DRILL
  0
POLYLINE
  5
78
  8
DRILL
 66
     1
 10
0.0
 20
0.0
 30
0.0
 70
     1
  0
VERTEX
  5
D0
  8
DRILL
 10
278.9952522285019
 20
1949.035628797564
 30
0.0
 42
0.4142135623730951
  0
VERTEX
  5
D1
  8
DRILL
 10
282.1702522285019
 20
1952.210628797564
 30
0.0
 42
0.4142135623730951
  0
VERTEX
  5
D2
  8
DRILL
 10
278.9952522285019
 20
1955.385628797563
 30
0.0
 42
0.4142135623730951
  0
VERTEX
  5
D3
  8
DRILL
 10
275.8202522285019
 20
1952.210628797564
 30
0.0
 42
0.4142135623730951
  0
SEQEND
  5
334
  8
DRILL
  0
POLYLINE
  5
79
  8
DRILL
 66
     1
 10
0.0
 20
0.0
 30
0.0
 70
     1
  0
VERTEX
  5
D4
  8
DRILL
 10
212.9952522285019
 20
2015.035628797564
 30
0.0
 42
0.4142135623730951
  0
VERTEX
  5
D5
  8
DRILL
 10
216.1702522285019
 20
2018.210628797564
 30
0.0
 42
0.4142135623730951
  0
VERTEX
  5
D6
  8
DRILL
 10
212.9952522285019
 20
2021.385628797563
 30
0.0
 42
0.4142135623730951
  0
VERTEX
  5
D7
  8
DRILL
 10
209.8202522285019
 20
2018.210628797564
 30
0.0
 42
0.4142135623730951
  0
SEQEND
  5
335
  8
DRILL
  0
POLYLINE
  5
7A
  8
DRILL
 66
     1
 10
0.0
 20
0.0
 30
0.0
 70
     1
  0
VERTEX
  5
D8
  8
DRILL
 10
497.743599633888
 20
2015.789572437236
 30
0.0
 42
0.4142135623730951
  0
VERTEX
  5
D9
  8
DRILL
 10
494.5685996338879
 20
2012.614572437236
 30
0.0
 42
0.4142135623730951
  0
VERTEX
  5
DA
  8
DRILL
 10
497.743599633888
 20
2009.439572437236
 30
0.0
 42
0.4142135623730951
  0
VERTEX
  5
DB
  8
DRILL
 10
500.9185996338878
 20
2012.614572437236
 30
0.0
 42
0.4142135623730951
  0
SEQEND
  5
336
  8
DRILL
  0
POLYLINE
  5
7B
  8
DRILL
 66
     1
 10
0.0
 20
0.0
 30
0.0
 70
     1
  0
VERTEX
  5
DC
  8
DRILL
 10
563.743599633888
 20
1949.789572437236
 30
0.0
 42
0.4142135623730951
  0
VERTEX
  5
DD
  8
DRILL
 10
560.5685996338879
 20
1946.614572437236
 30
0.0
 42
0.4142135623730951
  0
VERTEX
  5
DE
  8
DRILL
 10
563.743599633888
 20
1943.439572437236
 30
0.0
 42
0.4142135623730951
  0
VERTEX
  5
DF
  8
DRILL
 10
566.9185996338878
 20
1946.614572437236
 30
0.0
 42
0.4142135623730951
  0
SEQEND
  5
337
  8
DRILL
  0
POLYLINE
  5
7C
  8
DRILL
 66
     1
 10
0.0
 20
0.0
 30
0.0
 70
     1
  0
VERTEX
  5
E0
  8
DRILL
 10
529.743599633888
 20
1859.439572437236
 30
0.0
 42
0.4142135623730951
  0
VERTEX
  5
E1
  8
DRILL
 10
532.9185996338882
 20
1862.614572437236
 30
0.0
 42
0.4142135623730951
  0
VERTEX
  5
E2
  8
DRILL
 10
529.743599633888
 20
1865.789572437236
 30
0.0
 42
0.4142135623730951
  0
VERTEX
  5
E3
  8
DRILL
 10
526.5685996338883
 20
1862.614572437236
 30
0.0
 42
0.4142135623730951
  0
SEQEND
  5
338
  8
DRILL
  0
POLYLINE
  5
7D
  8
DRILL
 66
     1
 10
0.0
 20
0.0
 30
0.0
 70
     1
  0
VERTEX
  5
E4
  8
DRILL
 10
463.743599633888
 20
1925.439572437236
 30
0.0
 42
0.4142135623730951
  0
VERTEX
  5
E5
  8
DRILL
 10
466.9185996338878
 20
1928.614572437236
 30
0.0
 42
0.4142135623730951
  0
VERTEX
  5
E6
  8
DRILL
 10
463.743599633888
 20
1931.789572437236
 30
0.0
 42
0.4142135623730951
  0
VERTEX
  5
E7
  8
DRILL
 10
460.5685996338883
 20
1928.614572437236
 30
0.0
 42
0.4142135623730951
  0
SEQEND
  5
339
  8
DRILL
  0
POLYLINE
  5
7E
  8
DRILL
 66
     1
 10
0.0
 20
0.0
 30
0.0
 70
     1
  0
VERTEX
  5
E8
  8
DRILL
 10
360.5356498430947
 20
150.6998234832618
 30
0.0
 42
0.4142135623730951
  0
VERTEX
  5
E9
  8
DRILL
 10
363.7106498430944
 20
147.524823483262
 30
0.0
 42
0.4142135623730951
  0
VERTEX
  5
EA
  8
DRILL
 10
366.8856498430946
 20
150.6998234832618
 30
0.0
 42
0.4142135623730951
  0
VERTEX
  5
EB
  8
DRILL
 10
363.7106498430944
 20
153.8748234832619
 30
0.0
 42
0.4142135623730951
  0
SEQEND
  5
33A
  8
DRILL
  0
POLYLINE
  5
7F
  8
DRILL
 66
     1
 10
0.0
 20
0.0
 30
0.0
 70
     1
  0
VERTEX
  5
EC
  8
DRILL
 10
376.0356498430942
 20
391.6998234832627
 30
0.0
 42
0.4142135623730951
  0
VERTEX
  5
ED
  8
DRILL
 10
379.2106498430944
 20
388.5248234832629
 30
0.0
 42
0.4142135623730951
  0
VERTEX
  5
EE
  8
DRILL
 10
382.3856498430941
 20
391.6998234832627
 30
0.0
 42
0.4142135623730951
  0
VERTEX
  5
EF
  8
DRILL
 10
379.2106498430944
 20
394.8748234832628
 30
0.0
 42
0.4142135623730951
  0
SEQEND
  5
33B
  8
DRILL
  0
POLYLINE
  5
80
  8
DRILL
 66
     1
 10
0.0
 20
0.0
 30
0.0
 70
     1
  0
VERTEX
  5
F0
  8
DRILL
 10
376.0356498430942
 20
641.6998234832627
 30
0.0
 42
0.4142135623730951
  0
VERTEX
  5
F1
  8
DRILL
 10
379.2106498430944
 20
638.5248234832629
 30
0.0
 42
0.4142135623730951
  0
VERTEX
  5
F2
  8
DRILL
 10
382.3856498430941
 20
641.6998234832627
 30
0.0
 42
0.4142135623730951
  0
VERTEX
  5
F3
  8
DRILL
 10
379.2106498430944
 20
644.8748234832628
 30
0.0
 42
0.4142135623730951
  0
SEQEND
  5
33C
  8
DRILL
  0
POLYLINE
  5
81
  8
DRILL
 66
     1
 10
0.0
 20
0.0
 30
0.0
 70
     1
  0
VERTEX
  5
F4
  8
DRILL
 10
551.5356498430942
 20
882.6998234832618
 30
0.0
 42
0.4142135623730951
  0
VERTEX
  5
F5
  8
DRILL
 10
554.7106498430944
 20
879.5248234832616
 30
0.0
 42
0.4142135623730951
  0
VERTEX
  5
F6
  8
DRILL
 10
557.8856498430946
 20
882.6998234832618
 30
0.0
 42
0.4142135623730951
  0
VERTEX
  5
F7
  8
DRILL
 10
554.7106498430944
 20
885.8748234832619
 30
0.0
 42
0.4142135623730951
  0
SEQEND
  5
33D
  8
DRILL
  0
POLYLINE
  5
82
  8
DRILL
 66
     1
 10
0.0
 20
0.0
 30
0.0
 70
     1
  0
VERTEX
  5
F8
  8
DRILL
 10
853.5356498430942
 20
150.6998234832618
 30
0.0
 42
0.4142135623730951
  0
VERTEX
  5
F9
  8
DRILL
 10
856.7106498430944
 20
147.524823483262
 30
0.0
 42
0.4142135623730951
  0
VERTEX
  5
FA
  8
DRILL
 10
859.8856498430946
 20
150.6998234832618
 30
0.0
 42
0.4142135623730951
  0
VERTEX
  5
FB
  8
DRILL
 10
856.7106498430944
 20
153.8748234832619
 30
0.0
 42
0.4142135623730951
  0
SEQEND
  5
33E
  8
DRILL
  0
POLYLINE
  5
83
  8
DRILL
 66
     1
 10
0.0
 20
0.0
 30
0.0
 70
     1
  0
VERTEX
  5
FC
  8
DRILL
 10
92.54401804393183
 20
1230.657720972803
 30
0.0
 42
0.4142135623730951
  0
VERTEX
  5
FD
  8
DRILL
 10
95.71901804393201
 20
1227.482720972803
 30
0.0
 42
0.4142135623730951
  0
VERTEX
  5
FE
  8
DRILL
 10
98.89401804393174
 20
1230.657720972803
 30
0.0
 42
0.4142135623730951
  0
VERTEX
  5
FF
  8
DRILL
 10
95.71901804393201
 20
1233.832720972803
 30
0.0
 42
0.4142135623730951
  0
SEQEND
  5
33F
  8
DRILL
  0
POLYLINE
  5
84
  8
DRILL
 66
     1
 10
0.0
 20
0.0
 30
0.0
 70
     1
  0
VERTEX
  5
100
  8
DRILL
 10
108.0440180439318
 20
2008.324387639469
 30
0.0
 42
0.4142135623730951
  0
VERTEX
  5
101
  8
DRILL
 10
111.219018043932
 20
2005.14938763947
 30
0.0
 42
0.4142135623730951
  0
VERTEX
  5
102
  8
DRILL
 10
114.3940180439317
 20
2008.324387639469
 30
0.0
 42
0.4142135623730951
  0
VERTEX
  5
103
  8
DRILL
 10
111.219018043932
 20
2011.49938763947
 30
0.0
 42
0.4142135623730951
  0
SEQEND
  5
340
  8
DRILL
  0
POLYLINE
  5
85
  8
DRILL
 66
     1
 10
0.0
 20
0.0
 30
0.0
 70
     1
  0
VERTEX
  5
104
  8
DRILL
 10
108.0440180439318
 20
1614.991054306136
 30
0.0
 42
0.4142135623730951
  0
VERTEX
  5
105
  8
DRILL
 10
111.219018043932
 20
1611.816054306136
 30
0.0
 42
0.4142135623730951
  0
VERTEX
  5
106
  8
DRILL
 10
114.3940180439317
 20
1614.991054306136
 30
0.0
 42
0.4142135623730951
  0
VERTEX
  5
107
  8
DRILL
 10
111.219018043932
 20
1618.166054306136
 30
0.0
 42
0.4142135623730951
  0
SEQEND
  5
341
  8
DRILL
  0
POLYLINE
  5
86
  8
DRILL
 66
     1
 10
0.0
 20
0.0
 30
0.0
 70
     1
  0
VERTEX
  5
108
  8
DRILL
 10
283.5440180439318
 20
2392.657720972803
 30
0.0
 42
0.4142135623730951
  0
VERTEX
  5
109
  8
DRILL
 10
286.719018043932
 20
2389.482720972803
 30
0.0
 42
0.4142135623730951
  0
VERTEX
  5
10A
  8
DRILL
 10
289.8940180439317
 20
2392.657720972803
 30
0.0
 42
0.4142135623730951
  0
VERTEX
  5
10B
  8
DRILL
 10
286.719018043932
 20
2395.832720972803
 30
0.0
 42
0.4142135623730951
  0
SEQEND
  5
342
  8
DRILL
  0
POLYLINE
  5
87
  8
DRILL
 66
     1
 10
0.0
 20
0.0
 30
0.0
 70
     1
  0
VERTEX
  5
10C
  8
DRILL
 10
585.5440180439318
 20
1230.657720972803
 30
0.0
 42
0.4142135623730951
  0
VERTEX
  5
10D
  8
DRILL
 10
588.719018043932
 20
1227.482720972803
 30
0.0
 42
0.4142135623730951
  0
VERTEX
  5
10E
  8
DRILL
 10
591.8940180439317
 20
1230.657720972803
 30
0.0
 42
0.4142135623730951
  0
VERTEX
  5
10F
  8
DRILL
 10
588.719018043932
 20
1233.832720972802
 30
0.0
 42
0.4142135623730951
  0
SEQEND
  5
343
  8
DRILL
  0
POLYLINE
  5
89
  8
OUTSIDE
 66
     1
 10
0.0
 20
0.0
 30
0.0
 70
     1
  0
VERTEX
  5
110
  8
OUTSIDE
 10
475.603467137375
 20
431.3133172071106
 30
0.0
  0
VERTEX
  5
111
  8
OUTSIDE
 10
552.5868004707081
 20
431.3133172071106
 30
0.0
 42
-0.4142135623730933
  0
VERTEX
  5
112
  8
OUTSIDE
 10
555.7618004707083
 20
434.4883172071106
 30
0.0
 42
-0.4142135623730933
  0
VERTEX
  5
113
  8
OUTSIDE
 10
558.936800470708
 20
431.3133172071106
 30
0.0
  0
VERTEX
  5
114
  8
OUTSIDE
 10
558.936800470708
 20
422.3133172071106
 30
0.0
  0
VERTEX
  5
115
  8
OUTSIDE
 10
642.2701338040415
 20
422.3133172071106
 30
0.0
  0
VERTEX
  5
116
  8
OUTSIDE
 10
642.2701338040415
 20
431.3133172071106
 30
0.0
 42
-0.9999999999999956
  0
VERTEX
  5
117
  8
OUTSIDE
 10
648.6201338040414
 20
431.3133172071106
 30
0.0
  0
VERTEX
  5
118
  8
OUTSIDE
 10
725.6034671373745
 20
431.3133172071106
 30
0.0
  0
VERTEX
  5
119
  8
OUTSIDE
 10
725.6034671373745
 20
533.3133172071106
 30
0.0
  0
VERTEX
  5
11A
  8
OUTSIDE
 10
648.6201338040414
 20
533.3133172071106
 30
0.0
 42
-0.9999999999999956
  0
VERTEX
  5
11B
  8
OUTSIDE
 10
642.2701338040415
 20
533.3133172071106
 30
0.0
  0
VERTEX
  5
11C
  8
OUTSIDE
 10
642.2701338040415
 20
542.3133172071106
 30
0.0
  0
VERTEX
  5
11D
  8
OUTSIDE
 10
558.936800470708
 20
542.3133172071106
 30
0.0
  0
VERTEX
  5
11E
  8
OUTSIDE
 10
558.936800470708
 20
533.3133172071106
 30
0.0
 42
-1.0
  0
VERTEX
  5
11F
  8
OUTSIDE
 10
552.5868004707081
 20
533.3133172071106
 30
0.0
  0
VERTEX
  5
120
  8
OUTSIDE
 10
475.603467137375
 20
533.3133172071106
 30
0.0
  0
SEQEND
  5
344
  8
OUTSIDE
  0
POLYLINE
  5
8A
  8
OUTSIDE
 66
     1
 10
0.0
 20
0.0
 30
0.0
 70
     1
  0
VERTEX
  5
121
  8
OUTSIDE
 10
1179.466727144711
 20
1627.541465638436
 30
0.0
  0
VERTEX
  5
122
  8
OUTSIDE
 10
1136.816727144711
 20
1627.541465638436
 30
0.0
 42
0.9999999999999866
  0
VERTEX
  5
123
  8
OUTSIDE
 10
1130.466727144711
 20
1627.541465638436
 30
0.0
  0
VERTEX
  5
124
  8
OUTSIDE
 10
1130.466727144711
 20
1609.541465638435
 30
0.0
  0
VERTEX
  5
125
  8
OUTSIDE
 10
1081.466727144711
 20
1609.541465638436
 30
0.0
  0
VERTEX
  5
126
  8
OUTSIDE
 10
1081.466727144711
 20
1668.541465638435
 30
0.0
  0
VERTEX
  5
127
  8
OUTSIDE
 10
1099.466727144711
 20
1668.541465638436
 30
0.0
 42
0.4142135623731181
  0
VERTEX
  5
128
  8
OUTSIDE
 10
1102.641727144711
 20
1671.716465638435
 30
0.0
 42
0.4142135623731181
  0
VERTEX
  5
129
  8
OUTSIDE
 10
1099.466727144711
 20
1674.891465638435
 30
0.0
  0
VERTEX
  5
12A
  8
OUTSIDE
 10
1099.466727144711
 20
1803.191465638436
 30
0.0
 42
0.4142135623731181
  0
VERTEX
  5
12B
  8
OUTSIDE
 10
1102.641727144711
 20
1806.366465638436
 30
0.0
 42
0.4142135623731181
  0
VERTEX
  5
12C
  8
OUTSIDE
 10
1099.466727144711
 20
1809.541465638436
 30
0.0
  0
VERTEX
  5
12D
  8
OUTSIDE
 10
1081.466727144711
 20
1809.541465638435
 30
0.0
  0
VERTEX
  5
12E
  8
OUTSIDE
 10
1081.466727144711
 20
1850.541465638436
 30
0.0
  0
VERTEX
  5
12F
  8
OUTSIDE
 10
1124.116727144711
 20
1850.541465638436
 30
0.0
 42
0.9999999999999866
  0
VERTEX
  5
130
  8
OUTSIDE
 10
1130.466727144711
 20
1850.541465638436
 30
0.0
  0
VERTEX
  5
131
  8
OUTSIDE
 10
1130.466727144711
 20
1868.541465638435
 30
0.0
 42
0.9999999999999866
  0
VERTEX
  5
132
  8
OUTSIDE
 10
1124.116727144711
 20
1868.541465638436
 30
0.0
  0
VERTEX
  5
133
  8
OUTSIDE
 10
1081.466727144711
 20
1868.541465638435
 30
0.0
  0
VERTEX
  5
134
  8
OUTSIDE
 10
1081.466727144711
 20
1909.541465638435
 30
0.0
  0
VERTEX
  5
135
  8
OUTSIDE
 10
1099.466727144712
 20
1909.541465638436
 30
0.0
 42
0.4142135623731181
  0
VERTEX
  5
136
  8
OUTSIDE
 10
1102.641727144711
 20
1912.716465638435
 30
0.0
 42
0.4142135623731181
  0
VERTEX
  5
137
  8
OUTSIDE
 10
1099.466727144712
 20
1915.891465638435
 30
0.0
  0
VERTEX
  5
138
  8
OUTSIDE
 10
1099.466727144711
 20
2053.191465638435
 30
0.0
 42
0.4142135623731181
  0
VERTEX
  5
139
  8
OUTSIDE
 10
1102.641727144711
 20
2056.366465638435
 30
0.0
 42
0.4142135623731181
  0
VERTEX
  5
13A
  8
OUTSIDE
 10
1099.466727144711
 20
2059.541465638435
 30
0.0
  0
VERTEX
  5
13B
  8
OUTSIDE
 10
1081.466727144711
 20
2059.541465638436
 30
0.0
  0
VERTEX
  5
13C
  8
OUTSIDE
 10
1081.466727144711
 20
2100.541465638435
 30
0.0
  0
VERTEX
  5
13D
  8
OUTSIDE
 10
1124.116727144711
 20
2100.541465638436
 30
0.0
 42
0.9999999999999866
  0
VERTEX
  5
13E
  8
OUTSIDE
 10
1130.466727144711
 20
2100.541465638435
 30
0.0
  0
VERTEX
  5
13F
  8
OUTSIDE
 10
1130.466727144711
 20
2118.541465638436
 30
0.0
 42
0.4142135623730271
  0
VERTEX
  5
140
  8
OUTSIDE
 10
1127.291727144712
 20
2121.716465638436
 30
0.0
 42
0.4142135623730272
  0
VERTEX
  5
141
  8
OUTSIDE
 10
1124.116727144711
 20
2118.541465638436
 30
0.0
  0
VERTEX
  5
142
  8
OUTSIDE
 10
1081.466727144711
 20
2118.541465638436
 30
0.0
  0
VERTEX
  5
143
  8
OUTSIDE
 10
1081.466727144711
 20
2159.541465638436
 30
0.0
  0
VERTEX
  5
144
  8
OUTSIDE
 10
1099.466727144711
 20
2159.541465638436
 30
0.0
 42
0.9999999999999417
  0
VERTEX
  5
145
  8
OUTSIDE
 10
1099.466727144711
 20
2165.891465638436
 30
0.0
  0
VERTEX
  5
146
  8
OUTSIDE
 10
1099.466727144712
 20
2294.191465638436
 30
0.0
 42
0.9999999999999417
  0
VERTEX
  5
147
  8
OUTSIDE
 10
1099.466727144712
 20
2300.541465638435
 30
0.0
  0
VERTEX
  5
148
  8
OUTSIDE
 10
1081.466727144712
 20
2300.541465638436
 30
0.0
  0
VERTEX
  5
149
  8
OUTSIDE
 10
1081.466727144712
 20
2359.541465638436
 30
0.0
  0
VERTEX
  5
14A
  8
OUTSIDE
 10
1130.466727144712
 20
2359.541465638436
 30
0.0
  0
VERTEX
  5
14B
  8
OUTSIDE
 10
1130.466727144712
 20
2341.541465638436
 30
0.0
 42
0.4142135623730271
  0
VERTEX
  5
14C
  8
OUTSIDE
 10
1133.641727144711
 20
2338.366465638436
 30
0.0
 42
0.4142135623730272
  0
VERTEX
  5
14D
  8
OUTSIDE
 10
1136.816727144712
 20
2341.541465638436
 30
0.0
  0
VERTEX
  5
14E
  8
OUTSIDE
 10
1179.466727144712
 20
2341.541465638436
 30
0.0
  0
SEQEND
  5
345
  8
OUTSIDE
  0
POLYLINE
  5
8B
  8
OUTSIDE
 66
     1
 10
0.0
 20
0.0
 30
0.0
 70
     1
  0
VERTEX
  5
14F
  8
OUTSIDE
 10
831.6641017259383
 20
679.001636593442
 30
0.0
  0
VERTEX
  5
150
  8
OUTSIDE
 10
831.6641017259383
 20
602.0183032601084
 30
0.0
 42
-0.4142135623730933
  0
VERTEX
  5
151
  8
OUTSIDE
 10
834.8391017259382
 20
598.8433032601091
 30
0.0
 42
-0.4142135623730933
  0
VERTEX
  5
152
  8
OUTSIDE
 10
831.664101725938
 20
595.6683032601089
 30
0.0
  0
VERTEX
  5
153
  8
OUTSIDE
 10
822.6641017259383
 20
595.6683032601089
 30
0.0
  0
VERTEX
  5
154
  8
OUTSIDE
 10
822.664101725938
 20
512.3349699267754
 30
0.0
  0
VERTEX
  5
155
  8
OUTSIDE
 10
831.6641017259378
 20
512.3349699267754
 30
0.0
 42
-0.9999999999999956
  0
VERTEX
  5
156
  8
OUTSIDE
 10
831.664101725938
 20
505.9849699267751
 30
0.0
  0
VERTEX
  5
157
  8
OUTSIDE
 10
831.6641017259383
 20
429.001636593442
 30
0.0
  0
VERTEX
  5
158
  8
OUTSIDE
 10
933.664101725938
 20
429.001636593442
 30
0.0
  0
VERTEX
  5
159
  8
OUTSIDE
 10
933.664101725938
 20
505.9849699267751
 30
0.0
 42
-0.9999999999999956
  0
VERTEX
  5
15A
  8
OUTSIDE
 10
933.664101725938
 20
512.3349699267754
 30
0.0
  0
VERTEX
  5
15B
  8
OUTSIDE
 10
942.664101725938
 20
512.3349699267754
 30
0.0
  0
VERTEX
  5
15C
  8
OUTSIDE
 10
942.664101725938
 20
595.6683032601085
 30
0.0
  0
VERTEX
  5
15D
  8
OUTSIDE
 10
933.664101725938
 20
595.6683032601089
 30
0.0
 42
-1.0
  0
VERTEX
  5
15E
  8
OUTSIDE
 10
933.664101725938
 20
602.0183032601093
 30
0.0
  0
VERTEX
  5
15F
  8
OUTSIDE
 10
933.6641017259378
 20
679.0016365934424
 30
0.0
  0
SEQEND
  5
346
  8
OUTSIDE
  0
POLYLINE
  5
8C
  8
OUTSIDE
 66
     1
 10
0.0
 20
0.0
 30
0.0
 70
     1
  0
VERTEX
  5
160
  8
OUTSIDE
 10
474.7896944734971
 20
620.6940703451859
 30
0.0
  0
VERTEX
  5
161
  8
OUTSIDE
 10
551.7730278068307
 20
620.6940703451859
 30
0.0
 42
-0.4142135623730933
  0
VERTEX
  5
162
  8
OUTSIDE
 10
554.9480278068309
 20
623.8690703451858
 30
0.0
 42
-0.4142135623730933
  0
VERTEX
  5
163
  8
OUTSIDE
 10
558.1230278068306
 20
620.6940703451859
 30
0.0
  0
VERTEX
  5
164
  8
OUTSIDE
 10
558.1230278068306
 20
611.6940703451859
 30
0.0
  0
VERTEX
  5
165
  8
OUTSIDE
 10
641.4563611401641
 20
611.6940703451859
 30
0.0
  0
VERTEX
  5
166
  8
OUTSIDE
 10
641.4563611401641
 20
620.6940703451859
 30
0.0
 42
-0.9999999999999956
  0
VERTEX
  5
167
  8
OUTSIDE
 10
647.806361140164
 20
620.6940703451859
 30
0.0
  0
VERTEX
  5
168
  8
OUTSIDE
 10
724.7896944734971
 20
620.6940703451859
 30
0.0
  0
VERTEX
  5
169
  8
OUTSIDE
 10
724.7896944734971
 20
722.6940703451859
 30
0.0
  0
VERTEX
  5
16A
  8
OUTSIDE
 10
647.806361140164
 20
722.6940703451859
 30
0.0
 42
-0.9999999999999956
  0
VERTEX
  5
16B
  8
OUTSIDE
 10
641.4563611401641
 20
722.6940703451859
 30
0.0
  0
VERTEX
  5
16C
  8
OUTSIDE
 10
641.4563611401641
 20
731.6940703451859
 30
0.0
  0
VERTEX
  5
16D
  8
OUTSIDE
 10
558.1230278068306
 20
731.6940703451859
 30
0.0
  0
VERTEX
  5
16E
  8
OUTSIDE
 10
558.1230278068306
 20
722.6940703451859
 30
0.0
 42
-1.0
  0
VERTEX
  5
16F
  8
OUTSIDE
 10
551.7730278068307
 20
722.6940703451859
 30
0.0
  0
VERTEX
  5
170
  8
OUTSIDE
 10
474.7896944734975
 20
722.6940703451859
 30
0.0
  0
SEQEND
  5
347
  8
OUTSIDE
  0
POLYLINE
  5
8D
  8
OUTSIDE
 66
     1
 10
0.0
 20
0.0
 30
0.0
 70
     1
  0
VERTEX
  5
171
  8
OUTSIDE
 10
192.0615215306805
 20
1706.953484571127
 30
0.0
  0
VERTEX
  5
172
  8
OUTSIDE
 10
269.0448548640136
 20
1706.953484571127
 30
0.0
 42
-0.4142135623730933
  0
VERTEX
  5
173
  8
OUTSIDE
 10
272.2198548640133
 20
1710.128484571127
 30
0.0
 42
-0.4142135623730933
  0
VERTEX
  5
174
  8
OUTSIDE
 10
275.3948548640135
 20
1706.953484571127
 30
0.0
  0
VERTEX
  5
175
  8
OUTSIDE
 10
275.3948548640135
 20
1697.953484571127
 30
0.0
  0
VERTEX
  5
176
  8
OUTSIDE
 10
358.728188197347
 20
1697.953484571127
 30
0.0
  0
VERTEX
  5
177
  8
OUTSIDE
 10
358.728188197347
 20
1706.953484571127
 30
0.0
 42
-0.9999999999999956
  0
VERTEX
  5
178
  8
OUTSIDE
 10
365.0781881973469
 20
1706.953484571127
 30
0.0
  0
VERTEX
  5
179
  8
OUTSIDE
 10
442.06152153068
 20
1706.953484571127
 30
0.0
  0
VERTEX
  5
17A
  8
OUTSIDE
 10
442.06152153068
 20
1808.953484571127
 30
0.0
  0
VERTEX
  5
17B
  8
OUTSIDE
 10
365.0781881973469
 20
1808.953484571127
 30
0.0
 42
-0.9999999999999956
  0
VERTEX
  5
17C
  8
OUTSIDE
 10
358.728188197347
 20
1808.953484571127
 30
0.0
  0
VERTEX
  5
17D
  8
OUTSIDE
 10
358.728188197347
 20
1817.953484571127
 30
0.0
  0
VERTEX
  5
17E
  8
OUTSIDE
 10
275.3948548640135
 20
1817.953484571127
 30
0.0
  0
VERTEX
  5
17F
  8
OUTSIDE
 10
275.3948548640135
 20
1808.953484571127
 30
0.0
 42
-1.0
  0
VERTEX
  5
180
  8
OUTSIDE
 10
269.0448548640136
 20
1808.953484571127
 30
0.0
  0
VERTEX
  5
181
  8
OUTSIDE
 10
192.0615215306805
 20
1808.953484571127
 30
0.0
  0
SEQEND
  5
348
  8
OUTSIDE
  0
POLYLINE
  5
8E
  8
OUTSIDE
 66
     1
 10
0.0
 20
0.0
 30
0.0
 70
     1
  0
VERTEX
  5
182
  8
OUTSIDE
 10
1042.026549424684
 20
1228.94691246641
 30
0.0
  0
VERTEX
  5
183
  8
OUTSIDE
 10
1042.026549424684
 20
1592.105245799743
 30
0.0
 42
0.4142135623730962
  0
VERTEX
  5
184
  8
OUTSIDE
 10
1038.851549424684
 20
1595.280245799743
 30
0.0
  0
VERTEX
  5
185
  8
OUTSIDE
 10
999.3765494246843
 20
1595.280245799743
 30
0.0
 42
-0.9999999999999866
  0
VERTEX
  5
186
  8
OUTSIDE
 10
993.0265494246842
 20
1595.280245799743
 30
0.0
  0
VERTEX
  5
187
  8
OUTSIDE
 10
993.0265494246842
 20
1613.280245799743
 30
0.0
 42
-0.9999999999999866
  0
VERTEX
  5
188
  8
OUTSIDE
 10
999.3765494246843
 20
1613.280245799743
 30
0.0
  0
VERTEX
  5
189
  8
OUTSIDE
 10
1038.851549424684
 20
1613.280245799743
 30
0.0
 42
0.4142135623730958
  0
VERTEX
  5
18A
  8
OUTSIDE
 10
1042.026549424684
 20
1616.455245799743
 30
0.0
  0
VERTEX
  5
18B
  8
OUTSIDE
 10
1042.026549424684
 20
1985.438579133077
 30
0.0
 42
0.4142135623731317
  0
VERTEX
  5
18C
  8
OUTSIDE
 10
1038.851549424684
 20
1988.613579133077
 30
0.0
  0
VERTEX
  5
18D
  8
OUTSIDE
 10
999.3765494246845
 20
1988.613579133077
 30
0.0
 42
-0.9999999999999866
  0
VERTEX
  5
18E
  8
OUTSIDE
 10
993.0265494246846
 20
1988.613579133077
 30
0.0
  0
VERTEX
  5
18F
  8
OUTSIDE
 10
993.0265494246846
 20
2006.613579133076
 30
0.0
 42
-0.9999999999999866
  0
VERTEX
  5
190
  8
OUTSIDE
 10
999.3765494246845
 20
2006.613579133076
 30
0.0
  0
VERTEX
  5
191
  8
OUTSIDE
 10
1038.851549424684
 20
2006.613579133077
 30
0.0
 42
0.414213562373096
  0
VERTEX
  5
192
  8
OUTSIDE
 10
1042.026549424684
 20
2009.788579133078
 30
0.0
  0
VERTEX
  5
193
  8
OUTSIDE
 10
1042.026549424685
 20
2372.94691246641
 30
0.0
  0
VERTEX
  5
194
  8
OUTSIDE
 10
999.3765494246848
 20
2372.94691246641
 30
0.0
 42
-0.9999999999999866
  0
VERTEX
  5
195
  8
OUTSIDE
 10
993.0265494246848
 20
2372.94691246641
 30
0.0
  0
VERTEX
  5
196
  8
OUTSIDE
 10
993.0265494246848
 20
2390.94691246641
 30
0.0
  0
VERTEX
  5
197
  8
OUTSIDE
 10
944.0265494246844
 20
2390.94691246641
 30
0.0
  0
VERTEX
  5
198
  8
OUTSIDE
 10
944.0265494246844
 20
2331.94691246641
 30
0.0
  0
VERTEX
  5
199
  8
OUTSIDE
 10
962.0265494246848
 20
2331.94691246641
 30
0.0
 42
-0.414213562373067
  0
VERTEX
  5
19A
  8
OUTSIDE
 10
965.2015494246848
 20
2328.77191246641
 30
0.0
 42
-0.414213562373067
  0
VERTEX
  5
19B
  8
OUTSIDE
 10
962.0265494246848
 20
2325.596912466411
 30
0.0
  0
VERTEX
  5
19C
  8
OUTSIDE
 10
962.0265494246844
 20
2053.963579133077
 30
0.0
 42
-0.4142135623731212
  0
VERTEX
  5
19D
  8
OUTSIDE
 10
965.2015494246843
 20
2050.788579133077
 30
0.0
 42
-0.4142135623731213
  0
VERTEX
  5
19E
  8
OUTSIDE
 10
962.0265494246844
 20
2047.613579133078
 30
0.0
  0
VERTEX
  5
19F
  8
OUTSIDE
 10
944.0265494246844
 20
2047.613579133077
 30
0.0
  0
VERTEX
  5
1A0
  8
OUTSIDE
 10
944.0265494246842
 20
1947.613579133077
 30
0.0
  0
VERTEX
  5
1A1
  8
OUTSIDE
 10
962.0265494246842
 20
1947.613579133077
 30
0.0
 42
-0.4142135623730702
  0
VERTEX
  5
1A2
  8
OUTSIDE
 10
965.2015494246841
 20
1944.438579133077
 30
0.0
 42
-0.4142135623730702
  0
VERTEX
  5
1A3
  8
OUTSIDE
 10
962.0265494246842
 20
1941.263579133077
 30
0.0
  0
VERTEX
  5
1A4
  8
OUTSIDE
 10
962.0265494246839
 20
1660.630245799743
 30
0.0
 42
-0.4142135623730926
  0
VERTEX
  5
1A5
  8
OUTSIDE
 10
965.2015494246839
 20
1657.455245799743
 30
0.0
 42
-0.4142135623730926
  0
VERTEX
  5
1A6
  8
OUTSIDE
 10
962.0265494246839
 20
1654.280245799743
 30
0.0
  0
VERTEX
  5
1A7
  8
OUTSIDE
 10
944.0265494246839
 20
1654.280245799743
 30
0.0
  0
VERTEX
  5
1A8
  8
OUTSIDE
 10
944.0265494246837
 20
1554.280245799743
 30
0.0
  0
VERTEX
  5
1A9
  8
OUTSIDE
 10
962.0265494246839
 20
1554.280245799743
 30
0.0
 42
-0.4142135623730943
  0
VERTEX
  5
1AA
  8
OUTSIDE
 10
965.2015494246839
 20
1551.105245799743
 30
0.0
 42
-0.4142135623730943
  0
VERTEX
  5
1AB
  8
OUTSIDE
 10
962.0265494246839
 20
1547.930245799743
 30
0.0
  0
VERTEX
  5
1AC
  8
OUTSIDE
 10
962.0265494246839
 20
1276.29691246641
 30
0.0
 42
-0.4142135623730901
  0
VERTEX
  5
1AD
  8
OUTSIDE
 10
965.2015494246839
 20
1273.12191246641
 30
0.0
 42
-0.4142135623730901
  0
VERTEX
  5
1AE
  8
OUTSIDE
 10
962.0265494246839
 20
1269.94691246641
 30
0.0
  0
VERTEX
  5
1AF
  8
OUTSIDE
 10
944.0265494246835
 20
1269.94691246641
 30
0.0
  0
VERTEX
  5
1B0
  8
OUTSIDE
 10
944.0265494246835
 20
1210.94691246641
 30
0.0
  0
VERTEX
  5
1B1
  8
OUTSIDE
 10
993.0265494246837
 20
1210.94691246641
 30
0.0
  0
VERTEX
  5
1B2
  8
OUTSIDE
 10
993.0265494246837
 20
1228.94691246641
 30
0.0
 42
-0.4142135623730876
  0
VERTEX
  5
1B3
  8
OUTSIDE
 10
996.2015494246837
 20
1232.12191246641
 30
0.0
 42
-0.4142135623730876
  0
VERTEX
  5
1B4
  8
OUTSIDE
 10
999.3765494246838
 20
1228.94691246641
 30
0.0
  0
SEQEND
  5
349
  8
OUTSIDE
  0
POLYLINE
  5
8F
  8
OUTSIDE
 66
     1
 10
0.0
 20
0.0
 30
0.0
 70
     1
  0
VERTEX
  5
1B5
  8
OUTSIDE
 10
258.5485159518807
 20
43.79858610657766
 30
0.0
  0
VERTEX
  5
1B6
  8
OUTSIDE
 10
258.5485159518807
 20
406.956919439911
 30
0.0
 42
0.4142135623730962
  0
VERTEX
  5
1B7
  8
OUTSIDE
 10
255.3735159518808
 20
410.1319194399109
 30
0.0
  0
VERTEX
  5
1B8
  8
OUTSIDE
 10
215.8985159518813
 20
410.1319194399109
 30
0.0
 42
-0.9999999999999866
  0
VERTEX
  5
1B9
  8
OUTSIDE
 10
209.5485159518812
 20
410.1319194399109
 30
0.0
  0
VERTEX
  5
1BA
  8
OUTSIDE
 10
209.5485159518812
 20
428.1319194399108
 30
0.0
 42
-0.9999999999999866
  0
VERTEX
  5
1BB
  8
OUTSIDE
 10
215.8985159518813
 20
428.1319194399108
 30
0.0
  0
VERTEX
  5
1BC
  8
OUTSIDE
 10
255.3735159518808
 20
428.1319194399109
 30
0.0
 42
0.4142135623730958
  0
VERTEX
  5
1BD
  8
OUTSIDE
 10
258.5485159518807
 20
431.3069194399109
 30
0.0
  0
VERTEX
  5
1BE
  8
OUTSIDE
 10
258.5485159518807
 20
800.2902527732449
 30
0.0
 42
0.4142135623731317
  0
VERTEX
  5
1BF
  8
OUTSIDE
 10
255.3735159518808
 20
803.4652527732449
 30
0.0
  0
VERTEX
  5
1C0
  8
OUTSIDE
 10
215.8985159518816
 20
803.4652527732449
 30
0.0
 42
-0.9999999999999866
  0
VERTEX
  5
1C1
  8
OUTSIDE
 10
209.5485159518817
 20
803.4652527732449
 30
0.0
  0
VERTEX
  5
1C2
  8
OUTSIDE
 10
209.5485159518817
 20
821.465252773244
 30
0.0
 42
-0.9999999999999866
  0
VERTEX
  5
1C3
  8
OUTSIDE
 10
215.8985159518816
 20
821.465252773244
 30
0.0
  0
VERTEX
  5
1C4
  8
OUTSIDE
 10
255.3735159518808
 20
821.4652527732446
 30
0.0
 42
0.414213562373096
  0
VERTEX
  5
1C5
  8
OUTSIDE
 10
258.5485159518807
 20
824.640252773245
 30
0.0
  0
VERTEX
  5
1C6
  8
OUTSIDE
 10
258.5485159518819
 20
1187.798586106578
 30
0.0
  0
VERTEX
  5
1C7
  8
OUTSIDE
 10
215.8985159518818
 20
1187.798586106578
 30
0.0
 42
-0.9999999999999866
  0
VERTEX
  5
1C8
  8
OUTSIDE
 10
209.5485159518819
 20
1187.798586106578
 30
0.0
  0
VERTEX
  5
1C9
  8
OUTSIDE
 10
209.5485159518819
 20
1205.798586106578
 30
0.0
  0
VERTEX
  5
1CA
  8
OUTSIDE
 10
160.5485159518814
 20
1205.798586106578
 30
0.0
  0
VERTEX
  5
1CB
  8
OUTSIDE
 10
160.5485159518814
 20
1146.798586106578
 30
0.0
  0
VERTEX
  5
1CC
  8
OUTSIDE
 10
178.5485159518819
 20
1146.798586106578
 30
0.0
 42
-0.414213562373067
  0
VERTEX
  5
1CD
  8
OUTSIDE
 10
181.7235159518818
 20
1143.623586106578
 30
0.0
 42
-0.414213562373067
  0
VERTEX
  5
1CE
  8
OUTSIDE
 10
178.5485159518819
 20
1140.448586106578
 30
0.0
  0
VERTEX
  5
1CF
  8
OUTSIDE
 10
178.5485159518814
 20
868.815252773245
 30
0.0
 42
-0.4142135623731212
  0
VERTEX
  5
1D0
  8
OUTSIDE
 10
181.7235159518814
 20
865.640252773245
 30
0.0
 42
-0.4142135623731213
  0
VERTEX
  5
1D1
  8
OUTSIDE
 10
178.5485159518814
 20
862.4652527732451
 30
0.0
  0
VERTEX
  5
1D2
  8
OUTSIDE
 10
160.5485159518814
 20
862.4652527732449
 30
0.0
  0
VERTEX
  5
1D3
  8
OUTSIDE
 10
160.5485159518812
 20
762.4652527732449
 30
0.0
  0
VERTEX
  5
1D4
  8
OUTSIDE
 10
178.5485159518812
 20
762.4652527732449
 30
0.0
 42
-0.4142135623730702
  0
VERTEX
  5
1D5
  8
OUTSIDE
 10
181.7235159518812
 20
759.2902527732449
 30
0.0
 42
-0.4142135623730702
  0
VERTEX
  5
1D6
  8
OUTSIDE
 10
178.5485159518812
 20
756.115252773245
 30
0.0
  0
VERTEX
  5
1D7
  8
OUTSIDE
 10
178.548515951881
 20
475.4819194399108
 30
0.0
 42
-0.4142135623730926
  0
VERTEX
  5
1D8
  8
OUTSIDE
 10
181.7235159518809
 20
472.3069194399109
 30
0.0
 42
-0.4142135623730926
  0
VERTEX
  5
1D9
  8
OUTSIDE
 10
178.548515951881
 20
469.1319194399109
 30
0.0
  0
VERTEX
  5
1DA
  8
OUTSIDE
 10
160.548515951881
 20
469.1319194399109
 30
0.0
  0
VERTEX
  5
1DB
  8
OUTSIDE
 10
160.548515951881
 20
369.1319194399109
 30
0.0
  0
VERTEX
  5
1DC
  8
OUTSIDE
 10
178.548515951881
 20
369.1319194399109
 30
0.0
 42
-0.4142135623730943
  0
VERTEX
  5
1DD
  8
OUTSIDE
 10
181.7235159518809
 20
365.9569194399108
 30
0.0
 42
-0.4142135623730943
  0
VERTEX
  5
1DE
  8
OUTSIDE
 10
178.548515951881
 20
362.7819194399109
 30
0.0
  0
VERTEX
  5
1DF
  8
OUTSIDE
 10
178.548515951881
 20
91.1485861065778
 30
0.0
 42
-0.4142135623730901
  0
VERTEX
  5
1E0
  8
OUTSIDE
 10
181.7235159518809
 20
87.97358610657773
 30
0.0
 42
-0.4142135623730901
  0
VERTEX
  5
1E1
  8
OUTSIDE
 10
178.548515951881
 20
84.79858610657777
 30
0.0
  0
VERTEX
  5
1E2
  8
OUTSIDE
 10
160.5485159518805
 20
84.79858610657777
 30
0.0
  0
VERTEX
  5
1E3
  8
OUTSIDE
 10
160.5485159518805
 20
25.79858610657766
 30
0.0
  0
VERTEX
  5
1E4
  8
OUTSIDE
 10
209.5485159518807
 20
25.79858610657766
 30
0.0
  0
VERTEX
  5
1E5
  8
OUTSIDE
 10
209.5485159518807
 20
43.79858610657766
 30
0.0
 42
-0.4142135623730876
  0
VERTEX
  5
1E6
  8
OUTSIDE
 10
212.7235159518807
 20
46.97358610657761
 30
0.0
 42
-0.4142135623730876
  0
VERTEX
  5
1E7
  8
OUTSIDE
 10
215.8985159518809
 20
43.79858610657766
 30
0.0
  0
SEQEND
  5
34A
  8
OUTSIDE
  0
POLYLINE
  5
90
  8
OUTSIDE
 66
     1
 10
0.0
 20
0.0
 30
0.0
 70
     1
  0
VERTEX
  5
1E8
  8
OUTSIDE
 10
132.3691226464405
 20
270.0498501313316
 30
0.0
  0
VERTEX
  5
1E9
  8
OUTSIDE
 10
89.71912264644038
 20
270.0498501313316
 30
0.0
 42
0.9999999999999866
  0
VERTEX
  5
1EA
  8
OUTSIDE
 10
83.36912264644047
 20
270.0498501313316
 30
0.0
  0
VERTEX
  5
1EB
  8
OUTSIDE
 10
83.36912264644047
 20
252.0498501313316
 30
0.0
  0
VERTEX
  5
1EC
  8
OUTSIDE
 10
34.36912264644025
 20
252.0498501313316
 30
0.0
  0
VERTEX
  5
1ED
  8
OUTSIDE
 10
34.36912264644025
 20
311.0498501313316
 30
0.0
  0
VERTEX
  5
1EE
  8
OUTSIDE
 10
52.36912264644025
 20
311.0498501313316
 30
0.0
 42
0.4142135623731181
  0
VERTEX
  5
1EF
  8
OUTSIDE
 10
55.54412264644043
 20
314.2248501313316
 30
0.0
 42
0.4142135623731181
  0
VERTEX
  5
1F0
  8
OUTSIDE
 10
52.36912264644025
 20
317.3998501313315
 30
0.0
  0
VERTEX
  5
1F1
  8
OUTSIDE
 10
52.36912264644047
 20
445.6998501313317
 30
0.0
 42
0.4142135623731181
  0
VERTEX
  5
1F2
  8
OUTSIDE
 10
55.54412264644043
 20
448.8748501313316
 30
0.0
 42
0.4142135623731181
  0
VERTEX
  5
1F3
  8
OUTSIDE
 10
52.36912264644047
 20
452.0498501313316
 30
0.0
  0
VERTEX
  5
1F4
  8
OUTSIDE
 10
34.36912264644025
 20
452.0498501313316
 30
0.0
  0
VERTEX
  5
1F5
  8
OUTSIDE
 10
34.36912264644025
 20
493.0498501313316
 30
0.0
  0
VERTEX
  5
1F6
  8
OUTSIDE
 10
77.01912264644034
 20
493.0498501313316
 30
0.0
 42
0.9999999999999866
  0
VERTEX
  5
1F7
  8
OUTSIDE
 10
83.36912264644025
 20
493.0498501313316
 30
0.0
  0
VERTEX
  5
1F8
  8
OUTSIDE
 10
83.36912264644025
 20
511.0498501313316
 30
0.0
 42
0.9999999999999866
  0
VERTEX
  5
1F9
  8
OUTSIDE
 10
77.01912264644034
 20
511.0498501313316
 30
0.0
  0
VERTEX
  5
1FA
  8
OUTSIDE
 10
34.36912264644025
 20
511.0498501313316
 30
0.0
  0
VERTEX
  5
1FB
  8
OUTSIDE
 10
34.36912264644025
 20
552.0498501313316
 30
0.0
  0
VERTEX
  5
1FC
  8
OUTSIDE
 10
52.36912264644025
 20
552.0498501313316
 30
0.0
 42
0.4142135623731181
  0
VERTEX
  5
1FD
  8
OUTSIDE
 10
55.54412264644043
 20
555.2248501313316
 30
0.0
 42
0.4142135623731181
  0
VERTEX
  5
1FE
  8
OUTSIDE
 10
52.36912264644047
 20
558.3998501313315
 30
0.0
  0
VERTEX
  5
1FF
  8
OUTSIDE
 10
52.36912264644047
 20
695.6998501313317
 30
0.0
 42
0.4142135623731181
  0
VERTEX
  5
200
  8
OUTSIDE
 10
55.54412264644043
 20
698.8748501313316
 30
0.0
 42
0.4142135623731181
  0
VERTEX
  5
201
  8
OUTSIDE
 10
52.36912264644047
 20
702.0498501313316
 30
0.0
  0
VERTEX
  5
202
  8
OUTSIDE
 10
34.36912264644025
 20
702.0498501313316
 30
0.0
  0
VERTEX
  5
203
  8
OUTSIDE
 10
34.36912264644025
 20
743.0498501313316
 30
0.0
  0
VERTEX
  5
204
  8
OUTSIDE
 10
77.01912264644034
 20
743.0498501313316
 30
0.0
 42
0.9999999999999866
  0
VERTEX
  5
205
  8
OUTSIDE
 10
83.36912264644047
 20
743.0498501313316
 30
0.0
  0
VERTEX
  5
206
  8
OUTSIDE
 10
83.36912264644047
 20
761.0498501313325
 30
0.0
 42
0.4142135623730271
  0
VERTEX
  5
207
  8
OUTSIDE
 10
80.19412264644029
 20
764.2248501313327
 30
0.0
 42
0.4142135623730272
  0
VERTEX
  5
208
  8
OUTSIDE
 10
77.01912264644034
 20
761.0498501313325
 30
0.0
  0
VERTEX
  5
209
  8
OUTSIDE
 10
34.36912264644025
 20
761.0498501313325
 30
0.0
  0
VERTEX
  5
20A
  8
OUTSIDE
 10
34.36912264644025
 20
802.0498501313325
 30
0.0
  0
VERTEX
  5
20B
  8
OUTSIDE
 10
52.36912264644047
 20
802.049850131332
 30
0.0
 42
0.9999999999999417
  0
VERTEX
  5
20C
  8
OUTSIDE
 10
52.36912264644047
 20
808.399850131332
 30
0.0
  0
VERTEX
  5
20D
  8
OUTSIDE
 10
52.36912264644047
 20
936.6998501313321
 30
0.0
 42
0.9999999999999417
  0
VERTEX
  5
20E
  8
OUTSIDE
 10
52.36912264644047
 20
943.0498501313316
 30
0.0
  0
VERTEX
  5
20F
  8
OUTSIDE
 10
34.36912264644025
 20
943.0498501313316
 30
0.0
  0
VERTEX
  5
210
  8
OUTSIDE
 10
34.36912264644025
 20
1002.049850131333
 30
0.0
  0
VERTEX
  5
211
  8
OUTSIDE
 10
83.36912264644047
 20
1002.049850131333
 30
0.0
  0
VERTEX
  5
212
  8
OUTSIDE
 10
83.36912264644047
 20
984.0498501313325
 30
0.0
 42
0.4142135623730271
  0
VERTEX
  5
213
  8
OUTSIDE
 10
86.54412264644043
 20
980.8748501313323
 30
0.0
 42
0.4142135623730272
  0
VERTEX
  5
214
  8
OUTSIDE
 10
89.71912264644038
 20
984.0498501313325
 30
0.0
  0
VERTEX
  5
215
  8
OUTSIDE
 10
132.3691226464405
 20
984.0498501313325
 30
0.0
  0
SEQEND
  5
34B
  8
OUTSIDE
  0
POLYLINE
  5
91
  8
OUTSIDE
 66
     1
 10
0.0
 20
0.0
 30
0.0
 70
     1
  0
VERTEX
  5
216
  8
OUTSIDE
 10
305.9952522285019
 20
2077.210628797564
 30
0.0
  0
VERTEX
  5
217
  8
OUTSIDE
 10
287.9952522285019
 20
2077.210628797564
 30
0.0
  0
VERTEX
  5
218
  8
OUTSIDE
 10
287.9952522285019
 20
2027.210628797564
 30
0.0
  0
VERTEX
  5
219
  8
OUTSIDE
 10
305.9952522285019
 20
2027.210628797564
 30
0.0
 42
-1.0
  0
VERTEX
  5
21A
  8
OUTSIDE
 10
305.9952522285019
 20
2020.860628797564
 30
0.0
  0
VERTEX
  5
21B
  8
OUTSIDE
 10
305.9952522285019
 20
1995.210628797564
 30
0.0
  0
VERTEX
  5
21C
  8
OUTSIDE
 10
331.6452522285024
 20
1995.210628797564
 30
0.0
 42
-1.0
  0
VERTEX
  5
21D
  8
OUTSIDE
 10
337.9952522285019
 20
1995.210628797564
 30
0.0
  0
VERTEX
  5
21E
  8
OUTSIDE
 10
337.9952522285019
 20
1977.210628797564
 30
0.0
  0
VERTEX
  5
21F
  8
OUTSIDE
 10
387.9952522285019
 20
1977.210628797564
 30
0.0
  0
VERTEX
  5
220
  8
OUTSIDE
 10
387.9952522285019
 20
1995.210628797564
 30
0.0
  0
SEQEND
  5
34C
  8
OUTSIDE
  0
POLYLINE
  5
92
  8
OUTSIDE
 66
     1
 10
0.0
 20
0.0
 30
0.0
 70
     1
  0
VERTEX
  5
221
  8
OUTSIDE
 10
176.7235159518818
 20
2211.323254445607
 30
0.0
  0
VERTEX
  5
222
  8
OUTSIDE
 10
176.7235159518818
 20
2261.323254445607
 30
0.0
  0
VERTEX
  5
223
  8
OUTSIDE
 10
493.5485159518821
 20
2261.323254445607
 30
0.0
 42
-0.414213562373071
  0
VERTEX
  5
224
  8
OUTSIDE
 10
496.7235159518823
 20
2258.148254445607
 30
0.0
  0
VERTEX
  5
225
  8
OUTSIDE
 10
496.7235159518823
 20
2243.323254445606
 30
0.0
 42
1.0
  0
VERTEX
  5
226
  8
OUTSIDE
 10
503.0735159518822
 20
2243.323254445606
 30
0.0
  0
VERTEX
  5
227
  8
OUTSIDE
 10
792.3735159518824
 20
2243.323254445606
 30
0.0
 42
1.0
  0
VERTEX
  5
228
  8
OUTSIDE
 10
798.7235159518823
 20
2243.323254445606
 30
0.0
  0
VERTEX
  5
229
  8
OUTSIDE
 10
798.7235159518823
 20
2258.148254445607
 30
0.0
 42
-0.414213562373071
  0
VERTEX
  5
22A
  8
OUTSIDE
 10
801.8985159518825
 20
2261.323254445607
 30
0.0
  0
VERTEX
  5
22B
  8
OUTSIDE
 10
878.7235159518823
 20
2261.323254445607
 30
0.0
  0
VERTEX
  5
22C
  8
OUTSIDE
 10
878.7235159518823
 20
2067.673254445607
 30
0.0
 42
1.0
  0
VERTEX
  5
22D
  8
OUTSIDE
 10
878.7235159518823
 20
2061.323254445607
 30
0.0
  0
VERTEX
  5
22E
  8
OUTSIDE
 10
896.7235159518823
 20
2061.323254445607
 30
0.0
  0
VERTEX
  5
22F
  8
OUTSIDE
 10
896.7235159518823
 20
2020.323254445606
 30
0.0
  0
VERTEX
  5
230
  8
OUTSIDE
 10
854.0735159518822
 20
2020.323254445606
 30
0.0
 42
0.9999999999999643
  0
VERTEX
  5
231
  8
OUTSIDE
 10
847.7235159518823
 20
2020.323254445606
 30
0.0
  0
VERTEX
  5
232
  8
OUTSIDE
 10
847.7235159518823
 20
2002.323254445607
 30
0.0
 42
0.9999999999999643
  0
VERTEX
  5
233
  8
OUTSIDE
 10
854.0735159518822
 20
2002.323254445607
 30
0.0
  0
VERTEX
  5
234
  8
OUTSIDE
 10
896.7235159518823
 20
2002.323254445607
 30
0.0
  0
VERTEX
  5
235
  8
OUTSIDE
 10
896.7235159518823
 20
1961.323254445606
 30
0.0
  0
VERTEX
  5
236
  8
OUTSIDE
 10
878.7235159518823
 20
1961.323254445606
 30
0.0
 42
1.0
  0
VERTEX
  5
237
  8
OUTSIDE
 10
878.7235159518823
 20
1954.973254445606
 30
0.0
  0
VERTEX
  5
238
  8
OUTSIDE
 10
878.7235159518823
 20
1817.673254445607
 30
0.0
 42
1.0
  0
VERTEX
  5
239
  8
OUTSIDE
 10
878.7235159518823
 20
1811.323254445606
 30
0.0
  0
VERTEX
  5
23A
  8
OUTSIDE
 10
896.7235159518823
 20
1811.323254445606
 30
0.0
  0
VERTEX
  5
23B
  8
OUTSIDE
 10
896.7235159518823
 20
1770.323254445606
 30
0.0
  0
VERTEX
  5
23C
  8
OUTSIDE
 10
854.0735159518822
 20
1770.323254445606
 30
0.0
 42
0.9999999999999643
  0
VERTEX
  5
23D
  8
OUTSIDE
 10
847.7235159518823
 20
1770.323254445606
 30
0.0
  0
VERTEX
  5
23E
  8
OUTSIDE
 10
847.7235159518823
 20
1752.323254445607
 30
0.0
 42
0.9999999999999643
  0
VERTEX
  5
23F
  8
OUTSIDE
 10
854.0735159518822
 20
1752.323254445607
 30
0.0
  0
VERTEX
  5
240
  8
OUTSIDE
 10
896.7235159518823
 20
1752.323254445607
 30
0.0
  0
VERTEX
  5
241
  8
OUTSIDE
 10
896.7235159518823
 20
1711.323254445606
 30
0.0
  0
VERTEX
  5
242
  8
OUTSIDE
 10
878.7235159518823
 20
1711.323254445606
 30
0.0
 42
1.0
  0
VERTEX
  5
243
  8
OUTSIDE
 10
878.7235159518823
 20
1704.973254445606
 30
0.0
  0
VERTEX
  5
244
  8
OUTSIDE
 10
878.7235159518823
 20
1529.323254445607
 30
0.0
  0
VERTEX
  5
245
  8
OUTSIDE
 10
805.0735159518822
 20
1529.323254445607
 30
0.0
 42
0.4142135623730098
  0
VERTEX
  5
246
  8
OUTSIDE
 10
801.8985159518825
 20
1532.498254445607
 30
0.0
 42
0.4142135623730098
  0
VERTEX
  5
247
  8
OUTSIDE
 10
798.7235159518823
 20
1529.323254445607
 30
0.0
  0
VERTEX
  5
248
  8
OUTSIDE
 10
798.7235159518823
 20
1514.498254445606
 30
0.0
 42
-0.4142135623730203
  0
VERTEX
  5
249
  8
OUTSIDE
 10
795.5485159518821
 20
1511.323254445606
 30
0.0
  0
VERTEX
  5
24A
  8
OUTSIDE
 10
499.898515951882
 20
1511.323254445606
 30
0.0
 42
-0.4142135623732142
  0
VERTEX
  5
24B
  8
OUTSIDE
 10
496.7235159518818
 20
1514.498254445606
 30
0.0
  0
VERTEX
  5
24C
  8
OUTSIDE
 10
496.7235159518818
 20
1529.323254445607
 30
0.0
 42
0.4142135623730098
  0
VERTEX
  5
24D
  8
OUTSIDE
 10
493.5485159518817
 20
1532.498254445607
 30
0.0
 42
0.4142135623730098
  0
VERTEX
  5
24E
  8
OUTSIDE
 10
490.3735159518824
 20
1529.323254445607
 30
0.0
  0
VERTEX
  5
24F
  8
OUTSIDE
 10
176.7235159518818
 20
1529.323254445605
 30
0.0
  0
VERTEX
  5
250
  8
OUTSIDE
 10
176.7235159518818
 20
1561.323254445607
 30
0.0
  0
VERTEX
  5
251
  8
OUTSIDE
 10
194.7235159518818
 20
1561.323254445606
 30
0.0
 42
0.9999999999999463
  0
VERTEX
  5
252
  8
OUTSIDE
 10
194.7235159518818
 20
1567.673254445606
 30
0.0
  0
VERTEX
  5
253
  8
OUTSIDE
 10
194.7235159518823
 20
1611.323254445607
 30
0.0
  0
VERTEX
  5
254
  8
OUTSIDE
 10
795.5485159518821
 20
1611.323254445606
 30
0.0
 42
0.4142135623730203
  0
VERTEX
  5
255
  8
OUTSIDE
 10
798.7235159518823
 20
1614.498254445606
 30
0.0
  0
VERTEX
  5
256
  8
OUTSIDE
 10
798.7235159518823
 20
2008.840303676183
 30
0.0
 42
0.344586658494283
  0
VERTEX
  5
257
  8
OUTSIDE
 10
796.3137640689488
 20
2011.921702760905
 30
0.0
  0
VERTEX
  5
258
  8
OUTSIDE
 10
194.7235159518818
 20
2161.323254445607
 30
0.0
  0
VERTEX
  5
259
  8
OUTSIDE
 10
194.7235159518823
 20
2204.973254445606
 30
0.0
 42
0.4142135623730836
  0
VERTEX
  5
25A
  8
OUTSIDE
 10
197.898515951882
 20
2208.148254445607
 30
0.0
 42
0.4142135623730836
  0
VERTEX
  5
25B
  8
OUTSIDE
 10
194.7235159518823
 20
2211.323254445607
 30
0.0
  0
SEQEND
  5
34D
  8
OUTSIDE
  0
POLYLINE
  5
93
  8
OUTSIDE
 66
     1
 10
0.0
 20
0.0
 30
0.0
 70
     1
  0
VERTEX
  5
25C
  8
OUTSIDE
 10
445.7152986344954
 20
1153.649614278241
 30
0.0
  0
VERTEX
  5
25D
  8
OUTSIDE
 10
463.7152986344954
 20
1153.649614278241
 30
0.0
 42
-0.4142135623731374
  0
VERTEX
  5
25E
  8
OUTSIDE
 10
466.8902986344954
 20
1150.474614278241
 30
0.0
 42
-0.4142135623731374
  0
VERTEX
  5
25F
  8
OUTSIDE
 10
463.7152986344954
 20
1147.299614278241
 30
0.0
  0
VERTEX
  5
260
  8
OUTSIDE
 10
463.7152986344952
 20
1103.649614278241
 30
0.0
  0
VERTEX
  5
261
  8
OUTSIDE
 10
1065.305546751562
 20
954.2480625935393
 30
0.0
 42
-0.3445866584942663
  0
VERTEX
  5
262
  8
OUTSIDE
 10
1067.715298634495
 20
951.1666635088172
 30
0.0
  0
VERTEX
  5
263
  8
OUTSIDE
 10
1067.715298634495
 20
126.8246142782413
 30
0.0
 42
-0.4142135623730963
  0
VERTEX
  5
264
  8
OUTSIDE
 10
1064.540298634495
 20
123.6496142782411
 30
0.0
  0
VERTEX
  5
265
  8
OUTSIDE
 10
463.7152986344954
 20
123.6496142782411
 30
0.0
  0
VERTEX
  5
266
  8
OUTSIDE
 10
463.7152986344952
 20
79.99961427824151
 30
0.0
 42
-0.9999999999999463
  0
VERTEX
  5
267
  8
OUTSIDE
 10
463.7152986344952
 20
73.64961427824115
 30
0.0
  0
VERTEX
  5
268
  8
OUTSIDE
 10
445.7152986344952
 20
73.64961427824115
 30
0.0
  0
VERTEX
  5
269
  8
OUTSIDE
 10
445.7152986344959
 20
41.64961427824114
 30
0.0
  0
VERTEX
  5
26A
  8
OUTSIDE
 10
759.365298634495
 20
41.64961427824114
 30
0.0
 42
-0.4142135623730098
  0
VERTEX
  5
26B
  8
OUTSIDE
 10
762.540298634495
 20
44.82461427824132
 30
0.0
 42
-0.4142135623730098
  0
VERTEX
  5
26C
  8
OUTSIDE
 10
765.7152986344952
 20
41.64961427824114
 30
0.0
  0
VERTEX
  5
26D
  8
OUTSIDE
 10
765.7152986344952
 20
23.64961427824114
 30
0.0
  0
VERTEX
  5
26E
  8
OUTSIDE
 10
1067.715298634495
 20
23.64961427824114
 30
0.0
  0
VERTEX
  5
26F
  8
OUTSIDE
 10
1067.715298634495
 20
41.64961427824114
 30
0.0
 42
-0.4142135623729741
  0
VERTEX
  5
270
  8
OUTSIDE
 10
1070.890298634495
 20
44.82461427824132
 30
0.0
 42
-0.4142135623729741
  0
VERTEX
  5
271
  8
OUTSIDE
 10
1074.065298634495
 20
41.64961427824114
 30
0.0
  0
VERTEX
  5
272
  8
OUTSIDE
 10
1147.715298634495
 20
41.64961427824114
 30
0.0
  0
VERTEX
  5
273
  8
OUTSIDE
 10
1147.715298634495
 20
360.6329476115743
 30
0.0
 42
-0.9999999999999283
  0
VERTEX
  5
274
  8
OUTSIDE
 10
1147.715298634495
 20
366.9829476115742
 30
0.0
  0
VERTEX
  5
275
  8
OUTSIDE
 10
1165.715298634495
 20
366.9829476115742
 30
0.0
  0
VERTEX
  5
276
  8
OUTSIDE
 10
1165.715298634495
 20
407.9829476115742
 30
0.0
  0
VERTEX
  5
277
  8
OUTSIDE
 10
1123.065298634495
 20
407.9829476115742
 30
0.0
 42
-1.0
  0
VERTEX
  5
278
  8
OUTSIDE
 10
1116.715298634495
 20
407.9829476115742
 30
0.0
  0
VERTEX
  5
279
  8
OUTSIDE
 10
1116.715298634495
 20
425.9829476115742
 30
0.0
 42
-1.0
  0
VERTEX
  5
27A
  8
OUTSIDE
 10
1123.065298634495
 20
425.9829476115742
 30
0.0
  0
VERTEX
  5
27B
  8
OUTSIDE
 10
1165.715298634495
 20
425.9829476115742
 30
0.0
  0
VERTEX
  5
27C
  8
OUTSIDE
 10
1165.715298634495
 20
466.9829476115742
 30
0.0
  0
VERTEX
  5
27D
  8
OUTSIDE
 10
1147.715298634495
 20
466.9829476115742
 30
0.0
 42
-1.0
  0
VERTEX
  5
27E
  8
OUTSIDE
 10
1147.715298634495
 20
473.3329476115741
 30
0.0
  0
VERTEX
  5
27F
  8
OUTSIDE
 10
1147.715298634495
 20
753.9662809449082
 30
0.0
 42
-1.0
  0
VERTEX
  5
280
  8
OUTSIDE
 10
1147.715298634495
 20
760.3162809449082
 30
0.0
  0
VERTEX
  5
281
  8
OUTSIDE
 10
1165.715298634495
 20
760.3162809449082
 30
0.0
  0
VERTEX
  5
282
  8
OUTSIDE
 10
1165.715298634495
 20
801.3162809449082
 30
0.0
  0
VERTEX
  5
283
  8
OUTSIDE
 10
1123.065298634496
 20
801.3162809449082
 30
0.0
 42
-1.0
  0
VERTEX
  5
284
  8
OUTSIDE
 10
1116.715298634495
 20
801.3162809449082
 30
0.0
  0
VERTEX
  5
285
  8
OUTSIDE
 10
1116.715298634495
 20
819.3162809449082
 30
0.0
 42
-1.0
  0
VERTEX
  5
286
  8
OUTSIDE
 10
1123.065298634496
 20
819.3162809449082
 30
0.0
  0
VERTEX
  5
287
  8
OUTSIDE
 10
1165.715298634495
 20
819.3162809449082
 30
0.0
  0
VERTEX
  5
288
  8
OUTSIDE
 10
1165.715298634495
 20
860.3162809449082
 30
0.0
  0
VERTEX
  5
289
  8
OUTSIDE
 10
1147.715298634495
 20
860.3162809449082
 30
0.0
 42
-1.0
  0
VERTEX
  5
28A
  8
OUTSIDE
 10
1147.715298634495
 20
866.6662809449081
 30
0.0
  0
VERTEX
  5
28B
  8
OUTSIDE
 10
1147.715298634495
 20
1203.649614278241
 30
0.0
  0
VERTEX
  5
28C
  8
OUTSIDE
 10
1067.715298634495
 20
1203.649614278241
 30
0.0
  0
VERTEX
  5
28D
  8
OUTSIDE
 10
1067.715298634495
 20
1185.649614278241
 30
0.0
 42
-1.0
  0
VERTEX
  5
28E
  8
OUTSIDE
 10
1061.365298634495
 20
1185.649614278241
 30
0.0
  0
VERTEX
  5
28F
  8
OUTSIDE
 10
772.0652986344953
 20
1185.649614278241
 30
0.0
 42
-1.0
  0
VERTEX
  5
290
  8
OUTSIDE
 10
765.7152986344954
 20
1185.649614278241
 30
0.0
  0
VERTEX
  5
291
  8
OUTSIDE
 10
765.7152986344954
 20
1203.649614278241
 30
0.0
  0
VERTEX
  5
292
  8
OUTSIDE
 10
445.7152986344954
 20
1203.649614278241
 30
0.0
  0
SEQEND
  5
34E
  8
OUTSIDE
  0
POLYLINE
  5
94
  8
OUTSIDE
 66
     1
 10
0.0
 20
0.0
 30
0.0
 70
     1
  0
VERTEX
  5
293
  8
OUTSIDE
 10
269.9952522285019
 20
1927.210628797564
 30
0.0
  0
VERTEX
  5
294
  8
OUTSIDE
 10
287.9952522285019
 20
1927.210628797564
 30
0.0
  0
VERTEX
  5
295
  8
OUTSIDE
 10
287.9952522285019
 20
1977.210628797564
 30
0.0
  0
VERTEX
  5
296
  8
OUTSIDE
 10
269.9952522285019
 20
1977.210628797564
 30
0.0
 42
-1.0
  0
VERTEX
  5
297
  8
OUTSIDE
 10
269.9952522285019
 20
1983.560628797564
 30
0.0
  0
VERTEX
  5
298
  8
OUTSIDE
 10
269.9952522285019
 20
2009.210628797564
 30
0.0
  0
VERTEX
  5
299
  8
OUTSIDE
 10
244.3452522285014
 20
2009.210628797564
 30
0.0
 42
-1.0
  0
VERTEX
  5
29A
  8
OUTSIDE
 10
237.9952522285019
 20
2009.210628797564
 30
0.0
  0
VERTEX
  5
29B
  8
OUTSIDE
 10
237.9952522285019
 20
2027.210628797564
 30
0.0
  0
VERTEX
  5
29C
  8
OUTSIDE
 10
187.9952522285019
 20
2027.210628797564
 30
0.0
  0
VERTEX
  5
29D
  8
OUTSIDE
 10
187.9952522285019
 20
2009.210628797564
 30
0.0
  0
SEQEND
  5
34F
  8
OUTSIDE
  0
POLYLINE
  5
95
  8
OUTSIDE
 66
     1
 10
0.0
 20
0.0
 30
0.0
 70
     1
  0
VERTEX
  5
29E
  8
OUTSIDE
 10
506.743599633888
 20
2037.614572437236
 30
0.0
  0
VERTEX
  5
29F
  8
OUTSIDE
 10
488.743599633888
 20
2037.614572437236
 30
0.0
  0
VERTEX
  5
2A0
  8
OUTSIDE
 10
488.743599633888
 20
1987.614572437236
 30
0.0
  0
VERTEX
  5
2A1
  8
OUTSIDE
 10
506.743599633888
 20
1987.614572437236
 30
0.0
 42
-1.0
  0
VERTEX
  5
2A2
  8
OUTSIDE
 10
506.743599633888
 20
1981.264572437236
 30
0.0
  0
VERTEX
  5
2A3
  8
OUTSIDE
 10
506.743599633888
 20
1955.614572437236
 30
0.0
  0
VERTEX
  5
2A4
  8
OUTSIDE
 10
532.3935996338884
 20
1955.614572437236
 30
0.0
 42
-1.0
  0
VERTEX
  5
2A5
  8
OUTSIDE
 10
538.7435996338878
 20
1955.614572437236
 30
0.0
  0
VERTEX
  5
2A6
  8
OUTSIDE
 10
538.743599633888
 20
1937.614572437236
 30
0.0
  0
VERTEX
  5
2A7
  8
OUTSIDE
 10
588.743599633888
 20
1937.614572437236
 30
0.0
  0
VERTEX
  5
2A8
  8
OUTSIDE
 10
588.743599633888
 20
1955.614572437236
 30
0.0
  0
SEQEND
  5
350
  8
OUTSIDE
  0
POLYLINE
  5
96
  8
OUTSIDE
 66
     1
 10
0.0
 20
0.0
 30
0.0
 70
     1
  0
VERTEX
  5
2A9
  8
OUTSIDE
 10
520.743599633888
 20
1837.614572437236
 30
0.0
  0
VERTEX
  5
2AA
  8
OUTSIDE
 10
538.743599633888
 20
1837.614572437236
 30
0.0
  0
VERTEX
  5
2AB
  8
OUTSIDE
 10
538.743599633888
 20
1887.614572437236
 30
0.0
  0
VERTEX
  5
2AC
  8
OUTSIDE
 10
520.743599633888
 20
1887.614572437236
 30
0.0
 42
-1.0
  0
VERTEX
  5
2AD
  8
OUTSIDE
 10
520.743599633888
 20
1893.964572437236
 30
0.0
  0
VERTEX
  5
2AE
  8
OUTSIDE
 10
520.743599633888
 20
1919.614572437236
 30
0.0
  0
VERTEX
  5
2AF
  8
OUTSIDE
 10
495.0935996338879
 20
1919.614572437236
 30
0.0
 42
-1.0
  0
VERTEX
  5
2B0
  8
OUTSIDE
 10
488.7435996338885
 20
1919.614572437236
 30
0.0
  0
VERTEX
  5
2B1
  8
OUTSIDE
 10
488.743599633888
 20
1937.614572437236
 30
0.0
  0
VERTEX
  5
2B2
  8
OUTSIDE
 10
438.743599633888
 20
1937.614572437236
 30
0.0
  0
VERTEX
  5
2B3
  8
OUTSIDE
 10
438.743599633888
 20
1919.614572437236
 30
0.0
  0
SEQEND
  5
351
  8
OUTSIDE
  0
POLYLINE
  5
97
  8
OUTSIDE
 66
     1
 10
0.0
 20
0.0
 30
0.0
 70
     1
  0
VERTEX
  5
2B4
  8
OUTSIDE
 10
1025.710649843094
 20
191.6998234832618
 30
0.0
  0
VERTEX
  5
2B5
  8
OUTSIDE
 10
1025.710649843094
 20
141.6998234832618
 30
0.0
  0
VERTEX
  5
2B6
  8
OUTSIDE
 10
708.8856498430946
 20
141.6998234832618
 30
0.0
 42
-0.414213562373071
  0
VERTEX
  5
2B7
  8
OUTSIDE
 10
705.7106498430944
 20
144.8748234832619
 30
0.0
  0
VERTEX
  5
2B8
  8
OUTSIDE
 10
705.7106498430944
 20
159.6998234832622
 30
0.0
 42
1.0
  0
VERTEX
  5
2B9
  8
OUTSIDE
 10
699.3606498430945
 20
159.6998234832622
 30
0.0
  0
VERTEX
  5
2BA
  8
OUTSIDE
 10
410.0606498430943
 20
159.6998234832622
 30
0.0
 42
1.0
  0
VERTEX
  5
2BB
  8
OUTSIDE
 10
403.7106498430944
 20
159.6998234832622
 30
0.0
  0
VERTEX
  5
2BC
  8
OUTSIDE
 10
403.7106498430944
 20
144.8748234832619
 30
0.0
 42
-0.414213562373071
  0
VERTEX
  5
2BD
  8
OUTSIDE
 10
400.5356498430942
 20
141.6998234832618
 30
0.0
  0
VERTEX
  5
2BE
  8
OUTSIDE
 10
323.7106498430944
 20
141.6998234832618
 30
0.0
  0
VERTEX
  5
2BF
  8
OUTSIDE
 10
323.7106498430944
 20
335.3498234832618
 30
0.0
 42
1.0
  0
VERTEX
  5
2C0
  8
OUTSIDE
 10
323.7106498430944
 20
341.6998234832618
 30
0.0
  0
VERTEX
  5
2C1
  8
OUTSIDE
 10
305.7106498430944
 20
341.6998234832618
 30
0.0
  0
VERTEX
  5
2C2
  8
OUTSIDE
 10
305.7106498430944
 20
382.6998234832627
 30
0.0
  0
VERTEX
  5
2C3
  8
OUTSIDE
 10
348.3606498430945
 20
382.6998234832627
 30
0.0
 42
0.9999999999999643
  0
VERTEX
  5
2C4
  8
OUTSIDE
 10
354.7106498430944
 20
382.6998234832627
 30
0.0
  0
VERTEX
  5
2C5
  8
OUTSIDE
 10
354.7106498430944
 20
400.6998234832618
 30
0.0
 42
0.9999999999999643
  0
VERTEX
  5
2C6
  8
OUTSIDE
 10
348.3606498430945
 20
400.6998234832618
 30
0.0
  0
VERTEX
  5
2C7
  8
OUTSIDE
 10
305.7106498430944
 20
400.6998234832618
 30
0.0
  0
VERTEX
  5
2C8
  8
OUTSIDE
 10
305.7106498430944
 20
441.6998234832627
 30
0.0
  0
VERTEX
  5
2C9
  8
OUTSIDE
 10
323.7106498430944
 20
441.6998234832622
 30
0.0
 42
1.0
  0
VERTEX
  5
2CA
  8
OUTSIDE
 10
323.7106498430944
 20
448.0498234832617
 30
0.0
  0
VERTEX
  5
2CB
  8
OUTSIDE
 10
323.7106498430944
 20
585.3498234832618
 30
0.0
 42
1.0
  0
VERTEX
  5
2CC
  8
OUTSIDE
 10
323.7106498430944
 20
591.6998234832622
 30
0.0
  0
VERTEX
  5
2CD
  8
OUTSIDE
 10
305.7106498430944
 20
591.6998234832627
 30
0.0
  0
VERTEX
  5
2CE
  8
OUTSIDE
 10
305.7106498430944
 20
632.6998234832627
 30
0.0
  0
VERTEX
  5
2CF
  8
OUTSIDE
 10
348.3606498430945
 20
632.6998234832627
 30
0.0
 42
0.9999999999999643
  0
VERTEX
  5
2D0
  8
OUTSIDE
 10
354.7106498430944
 20
632.6998234832627
 30
0.0
  0
VERTEX
  5
2D1
  8
OUTSIDE
 10
354.7106498430944
 20
650.6998234832618
 30
0.0
 42
0.9999999999999643
  0
VERTEX
  5
2D2
  8
OUTSIDE
 10
348.3606498430945
 20
650.6998234832618
 30
0.0
  0
VERTEX
  5
2D3
  8
OUTSIDE
 10
305.7106498430944
 20
650.6998234832618
 30
0.0
  0
VERTEX
  5
2D4
  8
OUTSIDE
 10
305.7106498430944
 20
691.6998234832627
 30
0.0
  0
VERTEX
  5
2D5
  8
OUTSIDE
 10
323.7106498430944
 20
691.6998234832627
 30
0.0
 42
1.0
  0
VERTEX
  5
2D6
  8
OUTSIDE
 10
323.7106498430944
 20
698.0498234832621
 30
0.0
  0
VERTEX
  5
2D7
  8
OUTSIDE
 10
323.7106498430944
 20
873.6998234832618
 30
0.0
  0
VERTEX
  5
2D8
  8
OUTSIDE
 10
397.3606498430945
 20
873.6998234832618
 30
0.0
 42
0.4142135623730098
  0
VERTEX
  5
2D9
  8
OUTSIDE
 10
400.5356498430942
 20
870.5248234832616
 30
0.0
 42
0.4142135623730098
  0
VERTEX
  5
2DA
  8
OUTSIDE
 10
403.7106498430944
 20
873.6998234832618
 30
0.0
  0
VERTEX
  5
2DB
  8
OUTSIDE
 10
403.7106498430944
 20
888.5248234832629
 30
0.0
 42
-0.4142135623730203
  0
VERTEX
  5
2DC
  8
OUTSIDE
 10
406.8856498430946
 20
891.6998234832622
 30
0.0
  0
VERTEX
  5
2DD
  8
OUTSIDE
 10
702.5356498430947
 20
891.6998234832622
 30
0.0
 42
-0.4142135623732142
  0
VERTEX
  5
2DE
  8
OUTSIDE
 10
705.7106498430944
 20
888.5248234832625
 30
0.0
  0
VERTEX
  5
2DF
  8
OUTSIDE
 10
705.7106498430944
 20
873.6998234832618
 30
0.0
 42
0.4142135623730098
  0
VERTEX
  5
2E0
  8
OUTSIDE
 10
708.8856498430946
 20
870.5248234832616
 30
0.0
 42
0.4142135623730098
  0
VERTEX
  5
2E1
  8
OUTSIDE
 10
712.0606498430943
 20
873.6998234832618
 30
0.0
  0
VERTEX
  5
2E2
  8
OUTSIDE
 10
1025.710649843094
 20
873.6998234832631
 30
0.0
  0
VERTEX
  5
2E3
  8
OUTSIDE
 10
1025.710649843094
 20
841.6998234832618
 30
0.0
  0
VERTEX
  5
2E4
  8
OUTSIDE
 10
1007.710649843094
 20
841.6998234832622
 30
0.0
 42
0.9999999999999463
  0
VERTEX
  5
2E5
  8
OUTSIDE
 10
1007.710649843094
 20
835.3498234832628
 30
0.0
  0
VERTEX
  5
2E6
  8
OUTSIDE
 10
1007.710649843094
 20
791.6998234832618
 30
0.0
  0
VERTEX
  5
2E7
  8
OUTSIDE
 10
406.8856498430946
 20
791.6998234832622
 30
0.0
 42
0.4142135623730203
  0
VERTEX
  5
2E8
  8
OUTSIDE
 10
403.7106498430944
 20
788.5248234832629
 30
0.0
  0
VERTEX
  5
2E9
  8
OUTSIDE
 10
403.7106498430944
 20
394.1827742526857
 30
0.0
 42
0.344586658494283
  0
VERTEX
  5
2EA
  8
OUTSIDE
 10
406.1204017260279
 20
391.1013751679639
 30
0.0
  0
VERTEX
  5
2EB
  8
OUTSIDE
 10
1007.710649843094
 20
241.6998234832618
 30
0.0
  0
VERTEX
  5
2EC
  8
OUTSIDE
 10
1007.710649843094
 20
198.0498234832617
 30
0.0
 42
0.4142135623730836
  0
VERTEX
  5
2ED
  8
OUTSIDE
 10
1004.535649843094
 20
194.8748234832619
 30
0.0
 42
0.4142135623730836
  0
VERTEX
  5
2EE
  8
OUTSIDE
 10
1007.710649843094
 20
191.6998234832618
 30
0.0
  0
SEQEND
  5
352
  8
OUTSIDE
  0
POLYLINE
  5
98
  8
OUTSIDE
 66
     1
 10
0.0
 20
0.0
 30
0.0
 70
     1
  0
VERTEX
  5
2EF
  8
OUTSIDE
 10
757.719018043932
 20
1271.657720972803
 30
0.0
  0
VERTEX
  5
2F0
  8
OUTSIDE
 10
739.719018043932
 20
1271.657720972803
 30
0.0
 42
-0.4142135623731374
  0
VERTEX
  5
2F1
  8
OUTSIDE
 10
736.544018043932
 20
1274.832720972802
 30
0.0
 42
-0.4142135623731374
  0
VERTEX
  5
2F2
  8
OUTSIDE
 10
739.719018043932
 20
1278.007720972803
 30
0.0
  0
VERTEX
  5
2F3
  8
OUTSIDE
 10
739.719018043932
 20
1321.657720972803
 30
0.0
  0
VERTEX
  5
2F4
  8
OUTSIDE
 10
138.1287699268651
 20
1471.059272657505
 30
0.0
 42
-0.3445866584942663
  0
VERTEX
  5
2F5
  8
OUTSIDE
 10
135.719018043932
 20
1474.140671742226
 30
0.0
  0
VERTEX
  5
2F6
  8
OUTSIDE
 10
135.719018043932
 20
2298.482720972803
 30
0.0
 42
-0.4142135623730963
  0
VERTEX
  5
2F7
  8
OUTSIDE
 10
138.8940180439322
 20
2301.657720972803
 30
0.0
  0
VERTEX
  5
2F8
  8
OUTSIDE
 10
739.7190180439318
 20
2301.657720972803
 30
0.0
  0
VERTEX
  5
2F9
  8
OUTSIDE
 10
739.719018043932
 20
2345.307720972803
 30
0.0
 42
-0.9999999999999463
  0
VERTEX
  5
2FA
  8
OUTSIDE
 10
739.719018043932
 20
2351.657720972803
 30
0.0
  0
VERTEX
  5
2FB
  8
OUTSIDE
 10
757.719018043932
 20
2351.657720972803
 30
0.0
  0
VERTEX
  5
2FC
  8
OUTSIDE
 10
757.7190180439313
 20
2383.657720972803
 30
0.0
  0
VERTEX
  5
2FD
  8
OUTSIDE
 10
444.0690180439319
 20
2383.657720972803
 30
0.0
 42
-0.4142135623730098
  0
VERTEX
  5
2FE
  8
OUTSIDE
 10
440.8940180439322
 20
2380.482720972803
 30
0.0
 42
-0.4142135623730098
  0
VERTEX
  5
2FF
  8
OUTSIDE
 10
437.719018043932
 20
2383.657720972803
 30
0.0
  0
VERTEX
  5
300
  8
OUTSIDE
 10
437.7190180439318
 20
2401.657720972803
 30
0.0
  0
VERTEX
  5
301
  8
OUTSIDE
 10
135.719018043932
 20
2401.657720972803
 30
0.0
  0
VERTEX
  5
302
  8
OUTSIDE
 10
135.719018043932
 20
2383.657720972803
 30
0.0
 42
-0.4142135623729741
  0
VERTEX
  5
303
  8
OUTSIDE
 10
132.5440180439318
 20
2380.482720972803
 30
0.0
 42
-0.4142135623729741
  0
VERTEX
  5
304
  8
OUTSIDE
 10
129.3690180439321
 20
2383.657720972803
 30
0.0
  0
VERTEX
  5
305
  8
OUTSIDE
 10
55.71901804393201
 20
2383.657720972803
 30
0.0
  0
VERTEX
  5
306
  8
OUTSIDE
 10
55.71901804393201
 20
2064.67438763947
 30
0.0
 42
-0.9999999999999283
  0
VERTEX
  5
307
  8
OUTSIDE
 10
55.71901804393201
 20
2058.32438763947
 30
0.0
  0
VERTEX
  5
308
  8
OUTSIDE
 10
37.71901804393201
 20
2058.32438763947
 30
0.0
  0
VERTEX
  5
309
  8
OUTSIDE
 10
37.71901804393201
 20
2017.324387639469
 30
0.0
  0
VERTEX
  5
30A
  8
OUTSIDE
 10
80.3690180439321
 20
2017.324387639469
 30
0.0
 42
-1.0
  0
VERTEX
  5
30B
  8
OUTSIDE
 10
86.71901804393201
 20
2017.324387639469
 30
0.0
  0
VERTEX
  5
30C
  8
OUTSIDE
 10
86.71901804393201
 20
1999.324387639469
 30
0.0
 42
-1.0
  0
VERTEX
  5
30D
  8
OUTSIDE
 10
80.3690180439321
 20
1999.324387639469
 30
0.0
  0
VERTEX
  5
30E
  8
OUTSIDE
 10
37.71901804393201
 20
1999.324387639469
 30
0.0
  0
VERTEX
  5
30F
  8
OUTSIDE
 10
37.71901804393201
 20
1958.324387639469
 30
0.0
  0
VERTEX
  5
310
  8
OUTSIDE
 10
55.71901804393201
 20
1958.324387639469
 30
0.0
 42
-1.0
  0
VERTEX
  5
311
  8
OUTSIDE
 10
55.71901804393201
 20
1951.97438763947
 30
0.0
  0
VERTEX
  5
312
  8
OUTSIDE
 10
55.71901804393201
 20
1671.341054306135
 30
0.0
 42
-1.0
  0
VERTEX
  5
313
  8
OUTSIDE
 10
55.71901804393201
 20
1664.991054306136
 30
0.0
  0
VERTEX
  5
314
  8
OUTSIDE
 10
37.71901804393201
 20
1664.991054306136
 30
0.0
  0
VERTEX
  5
315
  8
OUTSIDE
 10
37.71901804393201
 20
1623.991054306136
 30
0.0
  0
VERTEX
  5
316
  8
OUTSIDE
 10
80.3690180439321
 20
1623.991054306136
 30
0.0
 42
-1.0
  0
VERTEX
  5
317
  8
OUTSIDE
 10
86.71901804393201
 20
1623.991054306136
 30
0.0
  0
VERTEX
  5
318
  8
OUTSIDE
 10
86.71901804393201
 20
1605.991054306136
 30
0.0
 42
-1.0
  0
VERTEX
  5
319
  8
OUTSIDE
 10
80.3690180439321
 20
1605.991054306136
 30
0.0
  0
VERTEX
  5
31A
  8
OUTSIDE
 10
37.71901804393201
 20
1605.991054306136
 30
0.0
  0
VERTEX
  5
31B
  8
OUTSIDE
 10
37.71901804393201
 20
1564.991054306136
 30
0.0
  0
VERTEX
  5
31C
  8
OUTSIDE
 10
55.71901804393201
 20
1564.991054306136
 30
0.0
 42
-1.0
  0
VERTEX
  5
31D
  8
OUTSIDE
 10
55.71901804393201
 20
1558.641054306136
 30
0.0
  0
VERTEX
  5
31E
  8
OUTSIDE
 10
55.71901804393201
 20
1221.657720972803
 30
0.0
  0
VERTEX
  5
31F
  8
OUTSIDE
 10
135.719018043932
 20
1221.657720972803
 30
0.0
  0
VERTEX
  5
320
  8
OUTSIDE
 10
135.719018043932
 20
1239.657720972803
 30
0.0
 42
-1.0
  0
VERTEX
  5
321
  8
OUTSIDE
 10
142.0690180439319
 20
1239.657720972803
 30
0.0
  0
VERTEX
  5
322
  8
OUTSIDE
 10
431.3690180439321
 20
1239.657720972803
 30
0.0
 42
-1.0
  0
VERTEX
  5
323
  8
OUTSIDE
 10
437.719018043932
 20
1239.657720972803
 30
0.0
  0
VERTEX
  5
324
  8
OUTSIDE
 10
437.719018043932
 20
1221.657720972803
 30
0.0
  0
VERTEX
  5
325
  8
OUTSIDE
 10
757.719018043932
 20
1221.657720972803
 30
0.0
  0
SEQEND
  5
353
  8
OUTSIDE
  0
ENDSEC
  0
EOF
